<svg width="1333" height="165" viewBox="0 0 1333 165" fill="none" xmlns="http://www.w3.org/2000/svg">
<path d="M446.505 68.3803L456 59.0104V30.5052L427.495 2H332.505L304 30.5052V11.5156L294.505 2H256.505L247.01 11.5156V30.5052L228 49.5156L209.01 30.5052V11.5156L199.495 2H161.495L152 11.5156L142.505 2H104.505L95.0104 11.5156V49.5156L47.4948 2H9.49479L0 11.5156V144.505L9.49479 154H47.4948L57.0104 144.505V106.505L104.505 154H142.505L152 144.505V68.5052L199.495 116V144.505L209.01 154H247.01L256.505 144.505V116L304 68.5052V125.516L332.505 154H427.495L456 125.516V97.0104L446.505 87.4948H398.99V97.0104H361.01V59.0104H398.99V68.3803H446.505Z" fill="black"/>
<path d="M449.233 8.41315C450.128 8.41315 450.899 8.32986 450.899 7.28876C450.899 6.41424 450.045 6.31013 449.337 6.31013H447.9V8.41315H449.233ZM447.921 12.4942H446.734V5.31068H449.462C451.19 5.31068 452.085 5.91452 452.085 7.37205C452.085 8.68383 451.294 9.20438 450.211 9.32931L452.231 12.4942H450.899L449.045 9.4126H447.942V12.4942H447.921ZM449.191 3.41589C446.38 3.41589 444.194 5.62301 444.194 8.78794C444.194 11.7447 446.109 14.16 449.191 14.16C451.981 14.16 454.168 11.9737 454.168 8.78794C454.168 5.62301 451.981 3.41589 449.191 3.41589ZM449.191 15.2844C445.464 15.2844 442.799 12.4942 442.799 8.78794C442.799 4.87342 445.756 2.2915 449.191 2.2915C452.585 2.2915 455.542 4.87342 455.542 8.78794C455.563 12.6816 452.606 15.2844 449.191 15.2844Z" fill="black"/>
<g clip-path="url(#clip0_2308_1875)">
<path d="M494.445 40H503.72V11.274H503.826L511.776 40H519.302L527.252 11.274H527.358V40H536.633V2.158H522.111L515.592 27.386H515.486L508.967 2.158H494.445V40ZM550.613 32.103C550.613 29.93 552.309 29.082 554.323 28.605C556.284 28.075 558.616 27.916 559.888 27.121C560.1 32.792 558.669 35.23 554.376 35.23C552.362 35.23 550.613 34.329 550.613 32.103ZM551.143 20.973C551.567 18.641 553.157 17.528 555.648 17.528C557.503 17.528 559.994 18.323 559.994 20.39C559.994 22.086 559.146 22.616 557.609 22.934C551.355 24.206 541.603 23.517 541.603 32.474C541.603 38.145 545.737 40.795 550.984 40.795C554.27 40.795 557.715 39.841 560.047 37.403C560.153 38.304 560.259 39.152 560.577 40H569.64C568.58 37.827 568.58 35.283 568.58 32.951V20.92C568.58 13.129 562.273 11.698 555.754 11.698C552.627 11.698 549.447 12.228 547.009 13.606C544.571 15.037 542.875 17.369 542.716 20.973H551.143ZM600.368 12.493H591.146L585.952 30.407H585.846L580.652 12.493H571.112L578.214 31.626C578.744 33.11 580.493 37.35 580.493 38.834C580.493 40.742 578.956 41.908 576.889 41.908H573.762V49.222H578.002C584.097 49.222 587.33 48.48 589.503 42.438L600.368 12.493ZM610.656 26.273C610.656 22.775 611.928 18.588 616.115 18.588C620.302 18.588 621.627 22.775 621.627 26.273C621.627 29.771 620.302 33.905 616.115 33.905C611.928 33.905 610.656 29.771 610.656 26.273ZM601.646 26.273C601.646 34.541 607.582 40.795 616.115 40.795C624.648 40.795 630.637 34.541 630.637 26.273C630.637 18.005 624.648 11.698 616.115 11.698C607.582 11.698 601.646 18.005 601.646 26.273ZM635.69 40H644.7V26.379C644.7 22.934 647.032 19.86 651.484 19.86C652.703 19.86 653.763 20.072 654.929 20.39V12.175C654.24 12.016 653.498 11.963 652.809 11.963C648.94 11.963 645.866 13.818 644.541 17.316H644.435V12.493H635.69V40ZM658.574 12.016H662.39C662.549 14.454 660.906 16.574 658.574 16.998V21.238C664.351 20.284 666.948 16.256 667.001 10.956V2.158H658.574V12.016ZM668.097 30.937C668.362 38.622 675.04 40.795 681.559 40.795C687.76 40.795 694.756 38.357 694.756 30.99C694.756 28.711 693.325 24.683 687.76 23.57C683.626 22.669 677.584 22.192 677.584 19.595C677.584 17.687 679.969 17.528 681.453 17.528C682.566 17.528 683.573 17.74 684.315 18.217C685.057 18.694 685.481 19.436 685.481 20.602H693.802C693.484 13.447 687.177 11.698 681.135 11.698C675.729 11.698 668.574 13.5 668.574 20.125C668.574 27.545 675.676 27.704 681.347 29.135C682.937 29.506 685.746 29.93 685.746 32.05C685.746 34.223 683.255 34.965 681.506 34.965C680.234 34.965 679.015 34.647 678.167 34.011C677.266 33.322 676.683 32.315 676.683 30.937H668.097ZM714.795 21.079C714.795 32.05 721.526 40.795 733.451 40.795C745.376 40.795 752.107 32.05 752.107 21.079C752.107 10.108 745.376 1.363 733.451 1.363C721.526 1.363 714.795 10.108 714.795 21.079ZM724.653 21.079C724.653 15.461 727.091 9.843 733.451 9.843C739.811 9.843 742.249 15.461 742.249 21.079C742.249 26.697 739.811 32.315 733.451 32.315C727.091 32.315 724.653 26.697 724.653 21.079ZM759.067 40H768.077V18.323H773.483V12.493H768.077V11.274C768.077 8.783 769.349 8.518 771.416 8.518C772.211 8.518 773.006 8.571 773.854 8.677V2.317C772.423 2.264 770.939 2.158 769.508 2.158C761.823 2.158 759.067 4.596 759.067 12.493H754.721V18.323H759.067V40ZM794.765 40H803.775V12.493H794.765V40ZM803.775 2.158H794.765V9.048H803.775V2.158ZM777.752 40H786.762V18.323H792.168V12.493H786.762V11.274C786.762 8.783 788.034 8.518 790.101 8.518C790.896 8.518 791.691 8.571 792.539 8.677V2.317C791.108 2.264 789.624 2.158 788.193 2.158C780.508 2.158 777.752 4.596 777.752 12.493H773.406V18.323H777.752V40ZM836.817 22.563C836.181 15.302 830.086 11.698 823.249 11.698C814.398 11.698 808.833 17.952 808.833 26.697C808.833 35.124 814.981 40.795 823.249 40.795C830.563 40.795 836.287 36.555 837.082 29.188H828.337C827.913 32.103 826.323 33.905 823.196 33.905C819.38 33.905 817.843 30.248 817.843 26.697C817.843 22.881 818.638 18.588 823.673 18.588C825.952 18.588 828.019 20.231 828.072 22.563H836.817ZM849.26 23.411C849.79 20.072 851.91 17.793 855.09 17.793C858.111 17.793 860.284 20.337 860.443 23.411H849.26ZM869.453 28.446C869.877 19.118 864.948 11.698 855.09 11.698C846.981 11.698 840.25 17.74 840.25 26.167C840.25 35.389 846.345 40.795 855.302 40.795C861.45 40.795 867.333 38.039 868.976 31.679H860.549C859.701 33.693 857.581 34.7 855.408 34.7C851.592 34.7 849.419 32.209 849.26 28.446H869.453ZM495.982 97H504.992V75.323H510.398V69.493H504.992V68.274C504.992 65.783 506.264 65.518 508.331 65.518C509.126 65.518 509.921 65.571 510.769 65.677V59.317C509.338 59.264 507.854 59.158 506.423 59.158C498.738 59.158 495.982 61.596 495.982 69.493H491.636V75.323H495.982V97ZM521.322 83.273C521.322 79.775 522.594 75.588 526.781 75.588C530.968 75.588 532.293 79.775 532.293 83.273C532.293 86.771 530.968 90.905 526.781 90.905C522.594 90.905 521.322 86.771 521.322 83.273ZM512.312 83.273C512.312 91.541 518.248 97.795 526.781 97.795C535.314 97.795 541.303 91.541 541.303 83.273C541.303 75.005 535.314 68.698 526.781 68.698C518.248 68.698 512.312 75.005 512.312 83.273ZM546.356 97H555.366V83.379C555.366 79.934 557.698 76.86 562.15 76.86C563.369 76.86 564.429 77.072 565.595 77.39V69.175C564.906 69.016 564.164 68.963 563.475 68.963C559.606 68.963 556.532 70.818 555.207 74.316H555.101V69.493H546.356V97ZM585.693 97H616.38V88.52H595.551V81.312H614.101V73.68H595.551V67.055H615.85V59.158H585.693V97ZM648.263 79.563C647.627 72.302 641.532 68.698 634.695 68.698C625.844 68.698 620.279 74.952 620.279 83.697C620.279 92.124 626.427 97.795 634.695 97.795C642.009 97.795 647.733 93.555 648.528 86.188H639.783C639.359 89.103 637.769 90.905 634.642 90.905C630.826 90.905 629.289 87.248 629.289 83.697C629.289 79.881 630.084 75.588 635.119 75.588C637.398 75.588 639.465 77.231 639.518 79.563H648.263ZM660.706 83.273C660.706 79.775 661.978 75.588 666.165 75.588C670.352 75.588 671.677 79.775 671.677 83.273C671.677 86.771 670.352 90.905 666.165 90.905C661.978 90.905 660.706 86.771 660.706 83.273ZM651.696 83.273C651.696 91.541 657.632 97.795 666.165 97.795C674.698 97.795 680.687 91.541 680.687 83.273C680.687 75.005 674.698 68.698 666.165 68.698C657.632 68.698 651.696 75.005 651.696 83.273ZM685.421 97H694.431V82.001C694.431 78.98 695.915 76.118 699.307 76.118C704.236 76.118 703.812 79.934 703.812 83.697V97H712.822V79.351C712.822 75.376 712.08 68.698 702.911 68.698C699.625 68.698 695.915 70.447 694.272 73.256H694.166V69.493H685.421V97ZM726.49 83.273C726.49 79.775 727.762 75.588 731.949 75.588C736.136 75.588 737.461 79.775 737.461 83.273C737.461 86.771 736.136 90.905 731.949 90.905C727.762 90.905 726.49 86.771 726.49 83.273ZM717.48 83.273C717.48 91.541 723.416 97.795 731.949 97.795C740.482 97.795 746.471 91.541 746.471 83.273C746.471 75.005 740.482 68.698 731.949 68.698C723.416 68.698 717.48 75.005 717.48 83.273ZM751.206 97H760.216V83.591C760.216 77.973 761.594 76.118 764.827 76.118C767.265 76.118 768.219 78.132 768.219 81.365V97H777.229V83.538C777.229 79.086 777.6 76.118 781.469 76.118C783.801 76.118 785.232 77.867 785.232 80.835V97H794.242V80.57C794.242 75.323 793.288 68.698 784.543 68.698C780.833 68.698 778.13 70.235 775.957 73.15C774.473 69.811 771.399 68.698 767.954 68.698C764.615 68.698 761.7 70.5 760.057 73.256H759.951V69.493H751.206V97ZM800.59 97H809.6V69.493H800.59V97ZM809.6 59.158H800.59V66.048H809.6V59.158ZM842.614 79.563C841.978 72.302 835.883 68.698 829.046 68.698C820.195 68.698 814.63 74.952 814.63 83.697C814.63 92.124 820.778 97.795 829.046 97.795C836.36 97.795 842.084 93.555 842.879 86.188H834.134C833.71 89.103 832.12 90.905 828.993 90.905C825.177 90.905 823.64 87.248 823.64 83.697C823.64 79.881 824.435 75.588 829.47 75.588C831.749 75.588 833.816 77.231 833.869 79.563H842.614ZM492.961 135.079C492.961 146.05 499.692 154.795 511.617 154.795C523.542 154.795 530.273 146.05 530.273 135.079C530.273 124.108 523.542 115.363 511.617 115.363C499.692 115.363 492.961 124.108 492.961 135.079ZM502.819 135.079C502.819 129.461 505.257 123.843 511.617 123.843C517.977 123.843 520.415 129.461 520.415 135.079C520.415 140.697 517.977 146.315 511.617 146.315C505.257 146.315 502.819 140.697 502.819 135.079ZM549.476 132.588C553.451 132.588 554.829 136.457 554.829 139.955C554.829 143.718 553.451 147.905 549.423 147.905C545.342 147.905 543.964 144.778 543.964 139.955C543.964 134.284 547.038 132.588 549.476 132.588ZM535.272 163.222H544.282V151.032H544.388C546.243 153.523 548.84 154.795 552.232 154.795C560.023 154.795 563.839 148.011 563.839 140.856C563.839 133.118 560.182 125.698 551.543 125.698C548.363 125.698 545.713 127.076 543.964 129.673H543.858V126.493H535.272V163.222ZM582.86 132.588C586.835 132.588 588.213 136.457 588.213 139.955C588.213 143.718 586.835 147.905 582.807 147.905C578.726 147.905 577.348 144.778 577.348 139.955C577.348 134.284 580.422 132.588 582.86 132.588ZM568.656 163.222H577.666V151.032H577.772C579.627 153.523 582.224 154.795 585.616 154.795C593.407 154.795 597.223 148.011 597.223 140.856C597.223 133.118 593.566 125.698 584.927 125.698C581.747 125.698 579.097 127.076 577.348 129.673H577.242V126.493H568.656V163.222ZM609.725 140.273C609.725 136.775 610.997 132.588 615.184 132.588C619.371 132.588 620.696 136.775 620.696 140.273C620.696 143.771 619.371 147.905 615.184 147.905C610.997 147.905 609.725 143.771 609.725 140.273ZM600.715 140.273C600.715 148.541 606.651 154.795 615.184 154.795C623.717 154.795 629.706 148.541 629.706 140.273C629.706 132.005 623.717 125.698 615.184 125.698C606.651 125.698 600.715 132.005 600.715 140.273ZM634.758 154H643.768V140.379C643.768 136.934 646.1 133.86 650.552 133.86C651.771 133.86 652.831 134.072 653.997 134.39V126.175C653.308 126.016 652.566 125.963 651.877 125.963C648.008 125.963 644.934 127.818 643.609 131.316H643.503V126.493H634.758V154ZM673.595 126.493H668.03V118.172H659.02V126.493H654.462V132.323H659.02V144.566C659.02 152.039 660.981 154.265 668.666 154.265C670.309 154.265 671.952 154.053 673.595 154V147.375C672.8 147.375 672.005 147.481 671.263 147.481C669.302 147.481 668.03 147.004 668.03 144.831V132.323H673.595V126.493ZM704.954 126.493H695.944V141.227C695.944 146.103 692.976 147.375 691.015 147.375C688.153 147.375 686.563 146.103 686.563 142.446V126.493H677.553V143.029C677.553 150.237 679.832 154.795 687.729 154.795C690.909 154.795 694.407 153.046 696.103 150.237H696.209V154H704.954V126.493ZM710.99 154H720V139.001C720 135.98 721.484 133.118 724.876 133.118C729.805 133.118 729.381 136.934 729.381 140.697V154H738.391V136.351C738.391 132.376 737.649 125.698 728.48 125.698C725.194 125.698 721.484 127.447 719.841 130.256H719.735V126.493H710.99V154ZM744.692 154H753.702V126.493H744.692V154ZM753.702 116.158H744.692V123.048H753.702V116.158ZM776.645 126.493H771.08V118.172H762.07V126.493H757.512V132.323H762.07V144.566C762.07 152.039 764.031 154.265 771.716 154.265C773.359 154.265 775.002 154.053 776.645 154V147.375C775.85 147.375 775.055 147.481 774.313 147.481C772.352 147.481 771.08 147.004 771.08 144.831V132.323H776.645V126.493ZM806.52 126.493H797.298L792.104 144.407H791.998L786.804 126.493H777.264L784.366 145.626C784.896 147.11 786.645 151.35 786.645 152.834C786.645 154.742 785.108 155.908 783.041 155.908H779.914V163.222H784.154C790.249 163.222 793.482 162.48 795.655 156.438L806.52 126.493Z" fill="black"/>
</g>
<line x1="907.5" y1="2" x2="907.5" y2="154" stroke="black"/>
<path d="M945.624 31H958.211C967.108 31 972.561 25.834 972.561 16.24C972.561 7.179 967.19 1.726 958.211 1.726H945.624V31ZM953.25 8.286H956.858C962.065 8.286 964.935 10.869 964.935 16.199C964.935 22.062 962.639 24.317 956.858 24.44H953.25V8.286ZM982.392 18.167C982.802 15.584 984.442 13.821 986.902 13.821C989.239 13.821 990.92 15.789 991.043 18.167H982.392ZM998.013 22.062C998.341 14.846 994.528 9.106 986.902 9.106C980.629 9.106 975.422 13.78 975.422 20.299C975.422 27.433 980.137 31.615 987.066 31.615C991.822 31.615 996.373 29.483 997.644 24.563H991.125C990.469 26.121 988.829 26.9 987.148 26.9C984.196 26.9 982.515 24.973 982.392 22.062H998.013ZM1012.5 14.436C1015.57 14.436 1016.64 17.429 1016.64 20.135C1016.64 23.046 1015.57 26.285 1012.46 26.285C1009.3 26.285 1008.24 23.866 1008.24 20.135C1008.24 15.748 1010.61 14.436 1012.5 14.436ZM1001.51 38.134H1008.48V28.704H1008.56C1010 30.631 1012.01 31.615 1014.63 31.615C1020.66 31.615 1023.61 26.367 1023.61 20.832C1023.61 14.846 1020.78 9.106 1014.1 9.106C1011.64 9.106 1009.59 10.172 1008.24 12.181H1008.15V9.721H1001.51V38.134ZM1033.16 24.891C1033.16 23.21 1034.47 22.554 1036.03 22.185C1037.55 21.775 1039.35 21.652 1040.33 21.037C1040.5 25.424 1039.39 27.31 1036.07 27.31C1034.51 27.31 1033.16 26.613 1033.16 24.891ZM1033.57 16.281C1033.9 14.477 1035.13 13.616 1037.05 13.616C1038.49 13.616 1040.42 14.231 1040.42 15.83C1040.42 17.142 1039.76 17.552 1038.57 17.798C1033.73 18.782 1026.19 18.249 1026.19 25.178C1026.19 29.565 1029.39 31.615 1033.45 31.615C1035.99 31.615 1038.65 30.877 1040.46 28.991C1040.54 29.688 1040.62 30.344 1040.87 31H1047.88C1047.06 29.319 1047.06 27.351 1047.06 25.547V16.24C1047.06 10.213 1042.18 9.106 1037.14 9.106C1034.72 9.106 1032.26 9.516 1030.37 10.582C1028.49 11.689 1027.17 13.493 1027.05 16.281H1033.57ZM1051.89 31H1058.86V20.463C1058.86 17.798 1060.66 15.42 1064.1 15.42C1065.05 15.42 1065.87 15.584 1066.77 15.83V9.475C1066.24 9.352 1065.66 9.311 1065.13 9.311C1062.14 9.311 1059.76 10.746 1058.73 13.452H1058.65V9.721H1051.89V31ZM1081.93 9.721H1077.63V3.284H1070.66V9.721H1067.13V14.231H1070.66V23.702C1070.66 29.483 1072.17 31.205 1078.12 31.205C1079.39 31.205 1080.66 31.041 1081.93 31V25.875C1081.32 25.875 1080.7 25.957 1080.13 25.957C1078.61 25.957 1077.63 25.588 1077.63 23.907V14.231H1081.93V9.721ZM1085.03 31H1092V20.627C1092 16.281 1093.07 14.846 1095.57 14.846C1097.46 14.846 1098.19 16.404 1098.19 18.905V31H1105.16V20.586C1105.16 17.142 1105.45 14.846 1108.44 14.846C1110.25 14.846 1111.36 16.199 1111.36 18.495V31H1118.33V18.29C1118.33 14.231 1117.59 9.106 1110.82 9.106C1107.95 9.106 1105.86 10.295 1104.18 12.55C1103.03 9.967 1100.65 9.106 1097.99 9.106C1095.41 9.106 1093.15 10.5 1091.88 12.632H1091.8V9.721H1085.03V31ZM1128.94 18.167C1129.35 15.584 1130.99 13.821 1133.45 13.821C1135.78 13.821 1137.46 15.789 1137.59 18.167H1128.94ZM1144.56 22.062C1144.88 14.846 1141.07 9.106 1133.45 9.106C1127.17 9.106 1121.97 13.78 1121.97 20.299C1121.97 27.433 1126.68 31.615 1133.61 31.615C1138.37 31.615 1142.92 29.483 1144.19 24.563H1137.67C1137.01 26.121 1135.37 26.9 1133.69 26.9C1130.74 26.9 1129.06 24.973 1128.94 22.062H1144.56ZM1148.05 31H1155.02V19.397C1155.02 17.06 1156.17 14.846 1158.8 14.846C1162.61 14.846 1162.28 17.798 1162.28 20.709V31H1169.25V17.347C1169.25 14.272 1168.68 9.106 1161.58 9.106C1159.04 9.106 1156.17 10.459 1154.9 12.632H1154.82V9.721H1148.05V31ZM1186.71 9.721H1182.41V3.284H1175.44V9.721H1171.91V14.231H1175.44V23.702C1175.44 29.483 1176.95 31.205 1182.9 31.205C1184.17 31.205 1185.44 31.041 1186.71 31V25.875C1186.1 25.875 1185.48 25.957 1184.91 25.957C1183.39 25.957 1182.41 25.588 1182.41 23.907V14.231H1186.71V9.721ZM1208.69 20.381C1208.69 17.675 1209.68 14.436 1212.92 14.436C1216.16 14.436 1217.18 17.675 1217.18 20.381C1217.18 23.087 1216.16 26.285 1212.92 26.285C1209.68 26.285 1208.69 23.087 1208.69 20.381ZM1201.72 20.381C1201.72 26.777 1206.32 31.615 1212.92 31.615C1219.52 31.615 1224.15 26.777 1224.15 20.381C1224.15 13.985 1219.52 9.106 1212.92 9.106C1206.32 9.106 1201.72 13.985 1201.72 20.381ZM1229.33 31H1236.3V14.231H1240.48V9.721H1236.3V8.778C1236.3 6.851 1237.28 6.646 1238.88 6.646C1239.5 6.646 1240.11 6.687 1240.77 6.769V1.849C1239.66 1.808 1238.51 1.726 1237.41 1.726C1231.46 1.726 1229.33 3.612 1229.33 9.721H1225.97V14.231H1229.33V31ZM945.542 75H953.168V62.946H963.213V75H970.839V45.726H963.213V56.386H953.168V45.726H945.542V75ZM981.672 64.381C981.672 61.675 982.656 58.436 985.895 58.436C989.134 58.436 990.159 61.675 990.159 64.381C990.159 67.087 989.134 70.285 985.895 70.285C982.656 70.285 981.672 67.087 981.672 64.381ZM974.702 64.381C974.702 70.777 979.294 75.615 985.895 75.615C992.496 75.615 997.129 70.777 997.129 64.381C997.129 57.985 992.496 53.106 985.895 53.106C979.294 53.106 974.702 57.985 974.702 64.381ZM1000.79 75H1007.76V64.627C1007.76 60.281 1008.83 58.846 1011.33 58.846C1013.21 58.846 1013.95 60.404 1013.95 62.905V75H1020.92V64.586C1020.92 61.142 1021.21 58.846 1024.2 58.846C1026.01 58.846 1027.11 60.199 1027.11 62.495V75H1034.08V62.29C1034.08 58.231 1033.35 53.106 1026.58 53.106C1023.71 53.106 1021.62 54.295 1019.94 56.55C1018.79 53.967 1016.41 53.106 1013.75 53.106C1011.16 53.106 1008.91 54.5 1007.64 56.632H1007.56V53.721H1000.79V75ZM1044.69 62.167C1045.1 59.584 1046.74 57.821 1049.2 57.821C1051.54 57.821 1053.22 59.789 1053.34 62.167H1044.69ZM1060.31 66.062C1060.64 58.846 1056.83 53.106 1049.2 53.106C1042.93 53.106 1037.72 57.78 1037.72 64.299C1037.72 71.433 1042.44 75.615 1049.37 75.615C1054.12 75.615 1058.67 73.483 1059.95 68.563H1053.43C1052.77 70.121 1051.13 70.9 1049.45 70.9C1046.5 70.9 1044.82 68.973 1044.69 66.062H1060.31ZM1064.06 75H1071.03V45.726H1064.06V75ZM1081.89 62.167C1082.3 59.584 1083.94 57.821 1086.4 57.821C1088.74 57.821 1090.42 59.789 1090.54 62.167H1081.89ZM1097.51 66.062C1097.84 58.846 1094.03 53.106 1086.4 53.106C1080.13 53.106 1074.92 57.78 1074.92 64.299C1074.92 71.433 1079.63 75.615 1086.56 75.615C1091.32 75.615 1095.87 73.483 1097.14 68.563H1090.62C1089.97 70.121 1088.33 70.9 1086.65 70.9C1083.69 70.9 1082.01 68.973 1081.89 66.062H1097.51ZM1099.78 67.989C1099.98 73.934 1105.15 75.615 1110.19 75.615C1114.99 75.615 1120.4 73.729 1120.4 68.03C1120.4 66.267 1119.29 63.151 1114.99 62.29C1111.79 61.593 1107.12 61.224 1107.12 59.215C1107.12 57.739 1108.96 57.616 1110.11 57.616C1110.97 57.616 1111.75 57.78 1112.32 58.149C1112.9 58.518 1113.23 59.092 1113.23 59.994H1119.66C1119.42 54.459 1114.54 53.106 1109.86 53.106C1105.68 53.106 1100.15 54.5 1100.15 59.625C1100.15 65.365 1105.64 65.488 1110.03 66.595C1111.26 66.882 1113.43 67.21 1113.43 68.85C1113.43 70.531 1111.5 71.105 1110.15 71.105C1109.17 71.105 1108.22 70.859 1107.57 70.367C1106.87 69.834 1106.42 69.055 1106.42 67.989H1099.78ZM1122.56 67.989C1122.77 73.934 1127.93 75.615 1132.98 75.615C1137.77 75.615 1143.18 73.729 1143.18 68.03C1143.18 66.267 1142.08 63.151 1137.77 62.29C1134.57 61.593 1129.9 61.224 1129.9 59.215C1129.9 57.739 1131.75 57.616 1132.89 57.616C1133.75 57.616 1134.53 57.78 1135.11 58.149C1135.68 58.518 1136.01 59.092 1136.01 59.994H1142.45C1142.2 54.459 1137.32 53.106 1132.65 53.106C1128.47 53.106 1122.93 54.5 1122.93 59.625C1122.93 65.365 1128.42 65.488 1132.81 66.595C1134.04 66.882 1136.21 67.21 1136.21 68.85C1136.21 70.531 1134.29 71.105 1132.93 71.105C1131.95 71.105 1131.01 70.859 1130.35 70.367C1129.65 69.834 1129.2 69.055 1129.2 67.989H1122.56ZM1158.11 65.16C1158.15 72.663 1164.1 75.615 1170.82 75.615C1177.26 75.615 1183.57 73.237 1183.57 65.816C1183.57 60.527 1179.31 58.559 1175.09 57.37C1170.82 56.181 1166.6 55.771 1166.6 53.516C1166.6 51.589 1168.65 51.015 1170.29 51.015C1172.63 51.015 1175.13 51.876 1175 54.541H1182.63C1182.59 47.94 1176.73 45.111 1170.9 45.111C1165.41 45.111 1158.97 47.612 1158.97 54.008C1158.97 59.379 1163.36 61.265 1167.54 62.454C1171.76 63.643 1175.95 64.135 1175.95 66.718C1175.95 68.891 1173.57 69.711 1171.27 69.711C1168.03 69.711 1165.9 68.604 1165.74 65.16H1158.11ZM1192.8 62.167C1193.21 59.584 1194.85 57.821 1197.31 57.821C1199.64 57.821 1201.33 59.789 1201.45 62.167H1192.8ZM1208.42 66.062C1208.75 58.846 1204.93 53.106 1197.31 53.106C1191.03 53.106 1185.83 57.78 1185.83 64.299C1185.83 71.433 1190.54 75.615 1197.47 75.615C1202.23 75.615 1206.78 73.483 1208.05 68.563H1201.53C1200.87 70.121 1199.23 70.9 1197.55 70.9C1194.6 70.9 1192.92 68.973 1192.8 66.062H1208.42ZM1212.16 75H1219.13V64.463C1219.13 61.798 1220.94 59.42 1224.38 59.42C1225.32 59.42 1226.14 59.584 1227.05 59.83V53.475C1226.51 53.352 1225.94 53.311 1225.41 53.311C1222.41 53.311 1220.04 54.746 1219.01 57.452H1218.93V53.721H1212.16V75ZM1249.18 53.721H1242.08L1238.15 67.784H1238.07L1234.17 53.721H1226.91L1234.01 75H1242.04L1249.18 53.721ZM1251.64 75H1258.61V53.721H1251.64V75ZM1258.61 45.726H1251.64V51.056H1258.61V45.726ZM1284.15 61.511C1283.66 55.894 1278.94 53.106 1273.65 53.106C1266.81 53.106 1262.5 57.944 1262.5 64.709C1262.5 71.228 1267.26 75.615 1273.65 75.615C1279.31 75.615 1283.74 72.335 1284.36 66.636H1277.59C1277.26 68.891 1276.03 70.285 1273.61 70.285C1270.66 70.285 1269.47 67.456 1269.47 64.709C1269.47 61.757 1270.09 58.436 1273.98 58.436C1275.75 58.436 1277.34 59.707 1277.39 61.511H1284.15ZM1293.78 62.167C1294.19 59.584 1295.83 57.821 1298.29 57.821C1300.62 57.821 1302.3 59.789 1302.43 62.167H1293.78ZM1309.4 66.062C1309.73 58.846 1305.91 53.106 1298.29 53.106C1292.01 53.106 1286.81 57.78 1286.81 64.299C1286.81 71.433 1291.52 75.615 1298.45 75.615C1303.21 75.615 1307.76 73.483 1309.03 68.563H1302.51C1301.85 70.121 1300.21 70.9 1298.53 70.9C1295.58 70.9 1293.9 68.973 1293.78 66.062H1309.4ZM1311.67 67.989C1311.87 73.934 1317.04 75.615 1322.08 75.615C1326.88 75.615 1332.29 73.729 1332.29 68.03C1332.29 66.267 1331.18 63.151 1326.88 62.29C1323.68 61.593 1319 61.224 1319 59.215C1319 57.739 1320.85 57.616 1322 57.616C1322.86 57.616 1323.64 57.78 1324.21 58.149C1324.79 58.518 1325.11 59.092 1325.11 59.994H1331.55C1331.3 54.459 1326.43 53.106 1321.75 53.106C1317.57 53.106 1312.03 54.5 1312.03 59.625C1312.03 65.365 1317.53 65.488 1321.92 66.595C1323.15 66.882 1325.32 67.21 1325.32 68.85C1325.32 70.531 1323.39 71.105 1322.04 71.105C1321.05 71.105 1320.11 70.859 1319.46 70.367C1318.76 69.834 1318.31 69.055 1318.31 67.989H1311.67ZM949.228 91.176H954.988C961.288 91.176 963.556 94.884 963.556 101.004C963.556 110.472 957.256 111.12 954.916 111.12H949.228V91.176ZM945.808 114H954.628C963.196 114 966.976 109.14 966.976 100.536C966.976 92.292 962.548 88.296 954.628 88.296H945.808V114ZM972.884 102.912C973.064 100.032 975.044 97.656 978.212 97.656C981.272 97.656 983.396 99.996 983.576 102.912H972.884ZM983.504 108.096C982.964 110.544 981.236 111.732 978.68 111.732C974.612 111.732 972.776 108.852 972.884 105.612H986.816C986.996 101.112 984.98 94.956 978.392 94.956C973.316 94.956 969.644 99.024 969.644 104.64C969.824 110.292 972.632 114.432 978.572 114.432C982.784 114.432 985.7 112.236 986.528 108.096H983.504ZM990.096 121.128H993.156V111.516H993.228C994.56 113.712 997.368 114.432 999.24 114.432C1004.93 114.432 1007.74 110.04 1007.74 104.748C1007.74 99.492 1004.89 94.956 999.168 94.956C996.576 94.956 994.236 95.856 993.228 97.908H993.156V95.388H990.096V121.128ZM1004.5 104.532C1004.5 108.168 1003.09 111.732 998.916 111.732C994.704 111.732 993.048 108.312 993.048 104.676C993.048 101.22 994.596 97.656 998.736 97.656C1002.7 97.656 1004.5 101.04 1004.5 104.532ZM1027.82 111.552C1027.49 111.66 1027.17 111.732 1026.88 111.732C1025.91 111.732 1025.91 111.084 1025.91 109.644V100.068C1025.91 95.712 1022.27 94.956 1018.92 94.956C1014.75 94.956 1011.22 96.576 1011.04 101.184H1014.1C1014.24 98.448 1016.15 97.656 1018.74 97.656C1020.65 97.656 1022.88 98.052 1022.88 100.752C1022.88 103.092 1019.97 102.804 1016.62 103.488C1013.45 104.064 1010.32 105 1010.32 109.212C1010.32 112.956 1013.09 114.432 1016.48 114.432C1019.07 114.432 1021.34 113.568 1023.03 111.552C1023.03 113.568 1024.04 114.432 1025.62 114.432C1026.52 114.432 1027.28 114.252 1027.82 113.928V111.552ZM1022.85 107.52C1022.85 109.248 1021.19 111.732 1017.16 111.732C1015.29 111.732 1013.56 111.012 1013.56 108.996C1013.56 104.424 1020.47 106.152 1022.85 104.388V107.52ZM1030.56 114H1033.62V105.72C1033.62 100.968 1035.42 98.196 1040.35 98.196V94.956C1037.04 94.848 1034.98 96.288 1033.51 99.312H1033.44V95.388H1030.56V114ZM1046.9 89.808H1043.84V95.388H1040.67V98.088H1043.84V109.932C1043.84 113.352 1045.1 114 1048.27 114H1050.61V111.3H1049.2C1047.3 111.3 1046.9 111.084 1046.9 109.644V98.088H1050.61V95.388H1046.9V89.808ZM1054.01 114H1057.07V102.408C1057.07 100.968 1058.44 97.656 1062.04 97.656C1064.77 97.656 1065.53 99.384 1065.53 101.796V114H1068.59V102.408C1068.59 99.528 1070.46 97.656 1073.45 97.656C1076.44 97.656 1077.05 99.492 1077.05 101.796V114H1080.11V100.356C1080.11 96.504 1077.62 94.956 1073.92 94.956C1071.5 94.956 1069.34 96.108 1068.08 98.124C1067.33 95.82 1065.28 94.956 1062.97 94.956C1060.34 94.956 1058.36 96 1056.96 98.124H1056.89V95.388H1054.01V114ZM1086.93 102.912C1087.11 100.032 1089.09 97.656 1092.26 97.656C1095.32 97.656 1097.44 99.996 1097.62 102.912H1086.93ZM1097.55 108.096C1097.01 110.544 1095.28 111.732 1092.73 111.732C1088.66 111.732 1086.82 108.852 1086.93 105.612H1100.86C1101.04 101.112 1099.03 94.956 1092.44 94.956C1087.36 94.956 1083.69 99.024 1083.69 104.64C1083.87 110.292 1086.68 114.432 1092.62 114.432C1096.83 114.432 1099.75 112.236 1100.57 108.096H1097.55ZM1104.03 114H1107.09V103.488C1107.09 100.14 1108.89 97.656 1112.6 97.656C1114.94 97.656 1116.38 99.096 1116.38 101.4V114H1119.44V101.76C1119.44 97.764 1117.93 94.956 1113.03 94.956C1110.33 94.956 1108.28 96.036 1106.99 98.34H1106.91V95.388H1104.03V114ZM1128.29 89.808H1125.23V95.388H1122.06V98.088H1125.23V109.932C1125.23 113.352 1126.49 114 1129.65 114H1131.99V111.3H1130.59C1128.68 111.3 1128.29 111.084 1128.29 109.644V98.088H1131.99V95.388H1128.29V89.808ZM1147.65 104.712C1147.65 100.212 1150.24 97.656 1153.44 97.656C1156.65 97.656 1159.24 100.212 1159.24 104.712C1159.24 109.212 1156.65 111.732 1153.44 111.732C1150.24 111.732 1147.65 109.212 1147.65 104.712ZM1144.41 104.712C1144.41 110.148 1147.54 114.432 1153.44 114.432C1159.35 114.432 1162.48 110.148 1162.48 104.712C1162.48 99.24 1159.35 94.956 1153.44 94.956C1147.54 94.956 1144.41 99.24 1144.41 104.712ZM1167.35 114H1170.41V98.088H1174.01V95.388H1170.41V92.796C1170.41 91.176 1171.27 90.708 1172.75 90.708C1173.29 90.708 1173.93 90.78 1174.47 90.96V88.296C1173.9 88.116 1173.07 88.008 1172.49 88.008C1169.15 88.008 1167.35 89.592 1167.35 92.616V95.388H1164.21V98.088H1167.35V114ZM963.916 134.82C963.736 129.168 959.704 126.684 954.448 126.684C949.732 126.684 945.124 129.024 945.124 134.208C945.124 143.64 961.576 138.996 961.576 146.052C961.576 149.76 958.156 150.732 955.06 150.732C951.172 150.732 947.572 148.86 947.572 144.54H944.332C944.332 150.768 949.192 153.612 954.952 153.612C959.632 153.612 964.996 151.416 964.996 145.944C964.996 135.828 948.544 140.292 948.544 133.956C948.544 130.608 951.388 129.564 954.304 129.564C957.868 129.564 960.28 131.112 960.676 134.82H963.916ZM970.88 143.712C970.88 139.212 973.472 136.656 976.676 136.656C979.88 136.656 982.472 139.212 982.472 143.712C982.472 148.212 979.88 150.732 976.676 150.732C973.472 150.732 970.88 148.212 970.88 143.712ZM967.64 143.712C967.64 149.148 970.772 153.432 976.676 153.432C982.58 153.432 985.712 149.148 985.712 143.712C985.712 138.24 982.58 133.956 976.676 133.956C970.772 133.956 967.64 138.24 967.64 143.712ZM1005.12 140.364C1004.66 135.936 1001.34 133.956 997.096 133.956C991.192 133.956 988.312 138.348 988.312 143.928C988.312 149.508 991.336 153.432 997.024 153.432C1001.74 153.432 1004.55 150.768 1005.23 146.196H1002.1C1001.7 149.04 999.976 150.732 996.988 150.732C993.1 150.732 991.552 147.384 991.552 143.928C991.552 140.184 992.92 136.656 997.348 136.656C999.904 136.656 1001.49 138.024 1001.96 140.364H1005.12ZM1011.9 127.296H1008.84V131.04H1011.9V127.296ZM1008.84 153H1011.9V134.388H1008.84V153ZM1033.12 150.552C1032.8 150.66 1032.48 150.732 1032.19 150.732C1031.22 150.732 1031.22 150.084 1031.22 148.644V139.068C1031.22 134.712 1027.58 133.956 1024.23 133.956C1020.06 133.956 1016.53 135.576 1016.35 140.184H1019.41C1019.55 137.448 1021.46 136.656 1024.05 136.656C1025.96 136.656 1028.19 137.052 1028.19 139.752C1028.19 142.092 1025.28 141.804 1021.93 142.488C1018.76 143.064 1015.63 144 1015.63 148.212C1015.63 151.956 1018.4 153.432 1021.78 153.432C1024.38 153.432 1026.64 152.568 1028.34 150.552C1028.34 152.568 1029.34 153.432 1030.93 153.432C1031.83 153.432 1032.58 153.252 1033.12 152.928V150.552ZM1028.16 146.52C1028.16 148.248 1026.5 150.732 1022.47 150.732C1020.6 150.732 1018.87 150.012 1018.87 147.996C1018.87 143.424 1025.78 145.152 1028.16 143.388V146.52ZM1036.15 153H1039.21V127.296H1036.15V153ZM1072.58 134.82C1072.4 129.168 1068.37 126.684 1063.12 126.684C1058.4 126.684 1053.79 129.024 1053.79 134.208C1053.79 143.64 1070.24 138.996 1070.24 146.052C1070.24 149.76 1066.82 150.732 1063.73 150.732C1059.84 150.732 1056.24 148.86 1056.24 144.54H1053C1053 150.768 1057.86 153.612 1063.62 153.612C1068.3 153.612 1073.66 151.416 1073.66 145.944C1073.66 135.828 1057.21 140.292 1057.21 133.956C1057.21 130.608 1060.06 129.564 1062.97 129.564C1066.54 129.564 1068.95 131.112 1069.34 134.82H1072.58ZM1079.55 141.912C1079.73 139.032 1081.71 136.656 1084.88 136.656C1087.94 136.656 1090.06 138.996 1090.24 141.912H1079.55ZM1090.17 147.096C1089.63 149.544 1087.9 150.732 1085.34 150.732C1081.28 150.732 1079.44 147.852 1079.55 144.612H1093.48C1093.66 140.112 1091.64 133.956 1085.06 133.956C1079.98 133.956 1076.31 138.024 1076.31 143.64C1076.49 149.292 1079.3 153.432 1085.24 153.432C1089.45 153.432 1092.36 151.236 1093.19 147.096H1090.17ZM1096.54 153H1099.6V144.72C1099.6 139.968 1101.4 137.196 1106.34 137.196V133.956C1103.02 133.848 1100.97 135.288 1099.5 138.312H1099.42V134.388H1096.54V153ZM1123.83 134.388H1120.63L1115.55 149.904H1115.48L1110.26 134.388H1106.84L1113.75 153H1117.03L1123.83 134.388ZM1129.88 127.296H1126.82V131.04H1129.88V127.296ZM1126.82 153H1129.88V134.388H1126.82V153ZM1150.42 140.364C1149.96 135.936 1146.64 133.956 1142.4 133.956C1136.49 133.956 1133.61 138.348 1133.61 143.928C1133.61 149.508 1136.64 153.432 1142.32 153.432C1147.04 153.432 1149.85 150.768 1150.53 146.196H1147.4C1147 149.04 1145.28 150.732 1142.29 150.732C1138.4 150.732 1136.85 147.384 1136.85 143.928C1136.85 140.184 1138.22 136.656 1142.65 136.656C1145.2 136.656 1146.79 138.024 1147.26 140.364H1150.42ZM1156.19 141.912C1156.37 139.032 1158.35 136.656 1161.52 136.656C1164.58 136.656 1166.7 138.996 1166.88 141.912H1156.19ZM1166.81 147.096C1166.27 149.544 1164.54 150.732 1161.98 150.732C1157.92 150.732 1156.08 147.852 1156.19 144.612H1170.12C1170.3 140.112 1168.28 133.956 1161.7 133.956C1156.62 133.956 1152.95 138.024 1152.95 143.64C1153.13 149.292 1155.94 153.432 1161.88 153.432C1166.09 153.432 1169 151.236 1169.83 147.096H1166.81ZM1172.1 147.132C1172.28 151.74 1175.81 153.432 1179.99 153.432C1183.77 153.432 1187.91 152.028 1187.91 147.564C1187.91 144 1184.88 142.956 1181.82 142.272C1178.98 141.624 1175.74 141.192 1175.74 139.032C1175.74 137.16 1177.86 136.656 1179.7 136.656C1181.68 136.656 1183.84 137.412 1184.02 139.788H1187.08C1186.79 135.252 1183.62 133.956 1179.45 133.956C1176.17 133.956 1172.5 135.504 1172.5 139.248C1172.5 146.412 1184.67 143.172 1184.67 147.96C1184.67 150.3 1182.08 150.732 1180.17 150.732C1177.68 150.732 1175.27 149.868 1175.16 147.132H1172.1Z" fill="black"/>
<defs>
<clipPath id="clip0_2308_1875">
<rect width="380" height="165" fill="white" transform="translate(491)"/>
</clipPath>
</defs>
</svg>
