<?xml version="1.0" encoding="UTF-8"?><svg id="a" xmlns="http://www.w3.org/2000/svg" xmlns:xlink="http://www.w3.org/1999/xlink" viewBox="0 0 144.92 128.49"><defs><style>.c{fill:url(#b);}.d{fill:#031553;}.e{fill:#11d4b1;}.f{fill:#04a487;}</style><radialGradient id="b" cx="84.26" cy="38.49" fx="84.26" fy="38.49" r="97.74" gradientTransform="matrix(1, 0, 0, 1, 0, 0)" gradientUnits="userSpaceOnUse"><stop offset=".21" stop-color="#8195dc"/><stop offset=".39" stop-color="#6d90dd"/><stop offset=".66" stop-color="#568adf"/><stop offset=".73" stop-color="#4e81df"/><stop offset=".84" stop-color="#3a6bdf"/><stop offset=".99" stop-color="#1946df"/><stop offset="1" stop-color="#1642df"/></radialGradient></defs><path class="e" d="M91.68,6.51c2,0,6.75,.84,22.93,6.81,17.59,6.49,20.85,9.26,22.14,10.26s2,2.87,1.51,4.92c-.49,2.05-4.32,14.27-11.16,32.81-6.83,18.54-11.94,30.55-12.86,32.32-.92,1.77-2.68,2.75-4.34,2.76-.04,0-.09,0-.14,0-1.75,0-6.1-.33-23.33-6.68-17.68-6.52-20.93-9.05-22.18-10.15-1.26-1.1-1.96-2.98-1.51-4.92s4.37-14.4,11.2-32.93,12.02-30.75,12.89-32.42c.88-1.66,2.63-2.63,4.34-2.76,.15-.01,.31-.02,.49-.02m0-6.51c-.34,0-.66,.01-1,.04-4.07,.31-7.75,2.7-9.6,6.22-1.2,2.27-6.64,15.31-13.24,33.2-6.79,18.41-10.86,31.23-11.43,33.7-.97,4.18,.39,8.5,3.55,11.29,2.48,2.18,7.13,5.06,24.22,11.37,16.92,6.24,22.43,7.08,25.58,7.08h.19c4.23-.04,8.09-2.44,10.07-6.28,1.17-2.26,6.4-14.66,13.18-33.06,6.66-18.07,10.76-30.96,11.38-33.54,1.06-4.42-.46-8.98-3.88-11.6l-.12-.09c-1.89-1.46-5.81-4.5-23.73-11.11C99.68,.87,94.6,0,91.68,0h0Z"/><path class="e" d="M16.91,26.54c-.64,0-1.28-.24-1.77-.73l-7.13-7.13c-.98-.98-.98-2.56,0-3.54,.98-.98,2.56-.98,3.54,0l7.13,7.13c.98,.98,.98,2.56,0,3.54-.49,.49-1.13,.73-1.77,.73Z"/><path class="e" d="M12.6,36.97H2.5c-1.38,0-2.5-1.12-2.5-2.5s1.12-2.5,2.5-2.5H12.6c1.38,0,2.5,1.12,2.5,2.5s-1.12,2.5-2.5,2.5Z"/><path class="e" d="M27.34,22.23c-1.38,0-2.5-1.12-2.5-2.5V9.63c0-1.38,1.12-2.5,2.5-2.5s2.5,1.12,2.5,2.5v10.1c0,1.38-1.12,2.5-2.5,2.5Z"/><path class="f" d="M63.66,19.33c3.21,0,9.15,.51,20.87,2.35,18.52,2.91,22.25,5.06,23.71,5.8,1.46,.74,2.51,2.5,2.42,4.7-.09,2.2-1.54,15.46-4.73,35.79-3.2,20.33-5.93,33.65-6.5,35.64-.56,2-2.11,3.36-3.74,3.73-.65,.14-1.68,.34-3.86,.34-3.31,0-9.24-.45-20.46-2.21-18.62-2.93-22.29-4.82-23.73-5.68-1.44-.86-2.5-2.63-2.42-4.7,.08-2.07,1.56-15.6,4.75-35.92,3.19-20.32,5.97-33.87,6.51-35.75,.54-1.88,2.09-3.23,3.74-3.73,.61-.18,1.55-.36,3.43-.36m0-6.51h0c-2.2,0-3.84,.19-5.3,.63-3.9,1.16-7.01,4.29-8.13,8.15-.74,2.56-3.61,16.96-6.69,36.55-3.17,20.17-4.73,34.06-4.83,36.69-.16,4.34,1.98,8.38,5.59,10.53,2.87,1.71,8.01,3.68,26.05,6.52,9.82,1.54,16.84,2.29,21.47,2.29,2.69,0,4.18-.25,5.28-.5,4.11-.92,7.4-4.1,8.59-8.31,.72-2.54,3.49-16.24,6.66-36.4,3.11-19.8,4.69-33.77,4.81-36.52,.2-4.61-2.15-8.84-5.98-10.78l-.13-.07c-2.14-1.1-6.6-3.38-25.51-6.35-10.4-1.63-17.56-2.43-21.88-2.43h0Z"/><path class="c" d="M56.79,27.44c-20.37,0-24.61,1.26-27.22,2.55-3.63,1.8-6.19,5.43-6.69,9.46-.33,2.73-.93,17.93-.93,38.5s.59,35.47,.92,38.34c.5,4.37,3.22,8.08,7.08,9.69,3.12,1.3,8.53,2.5,26.82,2.5s23.63-1.19,26.79-2.48c3.89-1.59,6.62-5.31,7.12-9.7,.31-2.71,.92-17.18,.92-38.34s-.61-35.33-.92-38.17c-.51-4.64-3.46-8.52-7.52-9.88l-.14-.05c-2.3-.78-7.08-2.42-26.25-2.42h0Z"/><circle class="d" cx="47.21" cy="52.31" r="10.64"/></svg>