<?xml version="1.0" encoding="UTF-8"?>
<svg 
id="a" 
xmlns="http://www.w3.org/2000/svg" 
xmlns:xlink="http://www.w3.org/1999/xlink" 
viewBox="0 0 397.75 148.64">
    <defs>
        <style>.c{fill:url(#b);}.d{fill:#031553;}.e{fill:#11d4b1;}.f{fill:#04a487;}</style>
        <radialGradient id="b" cx="84.26" cy="53.63" fx="84.26" fy="53.63" r="97.74" gradientTransform="matrix(1, 0, 0, 1, 0, 0)" gradientUnits="userSpaceOnUse">
            <stop offset=".21" stop-color="#8195dc"/>
            <stop offset=".39" stop-color="#6d90dd"/>
            <stop offset=".66" stop-color="#568adf"/>
            <stop offset=".73" stop-color="#4e81df"/>
            <stop offset=".84" stop-color="#3a6bdf"/>
            <stop offset=".99" stop-color="#1946df"/>
            <stop offset="1" stop-color="#1642df"/>
        </radialGradient>
    </defs>
    <g>
        <g>
        <path class="d" d="M393.18,107.46l4.57-4.51v-13.71l-13.71-13.71h-45.69l-13.71,13.71v-9.13l-4.57-4.58h-18.28l-4.57,4.58v9.13l-9.14,9.14-9.13-9.14v-9.13l-4.58-4.58h-18.28l-4.57,4.58-4.57-4.58h-18.28l-4.57,4.58v18.28l-22.85-22.85h-18.28l-4.57,4.58v63.97l4.57,4.57h18.28l4.58-4.57v-18.28l22.84,22.84h18.28l4.57-4.57v-36.56l22.84,22.84v13.71l4.58,4.57h18.28l4.57-4.57v-13.71l22.84-22.84v27.42l13.71,13.7h45.69l13.71-13.7v-13.71l-4.57-4.58h-22.85v4.58h-18.27v-18.28h18.27v4.51h22.85Z"/><path class="d" d="M394.49,78.62c.43,0,.8-.04,.8-.54,0-.42-.41-.47-.75-.47h-.69v1.01h.64Zm-.63,1.96h-.57v-3.46h1.31c.83,0,1.26,.29,1.26,.99,0,.63-.38,.88-.9,.94l.97,1.52h-.64l-.89-1.48h-.53v1.48h-.01Zm.61-4.37c-1.35,0-2.4,1.06-2.4,2.58,0,1.42,.92,2.58,2.4,2.58,1.34,0,2.39-1.05,2.39-2.58s-1.05-2.58-2.39-2.58Zm0,5.71c-1.79,0-3.07-1.34-3.07-3.12,0-1.88,1.42-3.12,3.07-3.12s3.06,1.24,3.06,3.12c0,1.87-1.41,3.12-3.06,3.12Z"/></g><g><path class="d" d="M178.41,49.56V1.33h11.61l12.64,36.86L215.43,1.33h11.54V49.56h-8.24V11.74l-12.71,37.82h-6.77l-12.61-37.59V49.56h-8.24Z"/><path class="d" d="M241.88,60.57c-2.2,0-4.18-.34-5.94-1.03v-5.2l3.47,.1c1.4,.07,2.54-.01,3.42-.23,.88-.22,1.56-.53,2.05-.92,.49-.39,.85-.8,1.08-1.23s.42-.81,.55-1.12l.9-2.53-13.44-33.32h8.1l9.14,24.38,9.14-24.38h7.94l-14.21,35.76c-1.07,2.6-2.22,4.61-3.45,6.02-1.23,1.41-2.58,2.38-4.04,2.92-1.46,.53-3.03,.8-4.72,.8Z"/><path class="d" d="M289.65,1.33h31.55l-.03,6.87h-23.28v13.88h20.55v6.77h-20.55v20.71h-8.24V1.33Z"/><path class="d" d="M337.21,1.37v7.67h-8.04V1.37h8.04Zm-.1,13.71V49.56h-7.8V15.08h7.8Z"/><path class="d" d="M357.12,50.06c-2.22,0-4-.28-5.34-.83-1.33-.55-2.33-1.3-3-2.23-.67-.93-1.1-1.98-1.3-3.15-.2-1.17-.3-2.36-.3-3.58V0h7.94V39.32c0,1.49,.31,2.65,.92,3.47,.61,.82,1.61,1.3,2.99,1.43l1.73,.07v5.1c-.6,.18-1.21,.33-1.83,.47-.62,.13-1.22,.2-1.8,.2Z"/><path class="d" d="M373.9,34.19c-.02,1.96,.29,3.69,.93,5.2,.65,1.51,1.6,2.7,2.87,3.55,1.27,.86,2.83,1.28,4.7,1.28s3.57-.43,4.99-1.28c1.41-.86,2.35-2.16,2.82-3.92h7.44c-.4,2.4-1.36,4.44-2.87,6.1-1.51,1.67-3.34,2.94-5.49,3.8-2.15,.87-4.38,1.3-6.69,1.3-3.34,0-6.27-.71-8.79-2.12-2.52-1.41-4.49-3.43-5.9-6.05-1.41-2.62-2.12-5.75-2.12-9.37s.64-6.68,1.93-9.42c1.29-2.75,3.15-4.91,5.59-6.49,2.44-1.58,5.36-2.37,8.79-2.37s6.26,.72,8.59,2.17c2.32,1.45,4.08,3.46,5.27,6.05,1.19,2.59,1.78,5.62,1.78,9.09v2.47h-23.85Zm0-5.04h16.18c0-1.67-.29-3.17-.87-4.52-.58-1.34-1.46-2.41-2.65-3.2-1.19-.79-2.69-1.18-4.49-1.18s-3.28,.43-4.5,1.3c-1.22,.87-2.15,1.98-2.77,3.35-.62,1.37-.92,2.78-.9,4.25Z"/></g></g><g><path class="e" d="M91.68,21.65c2,0,6.75,.84,22.93,6.81,17.59,6.49,20.85,9.26,22.14,10.26s2,2.87,1.51,4.92c-.49,2.05-4.32,14.27-11.16,32.81-6.83,18.54-11.94,30.55-12.86,32.32-.92,1.77-2.68,2.75-4.34,2.76-.04,0-.09,0-.14,0-1.75,0-6.1-.33-23.33-6.68-17.68-6.52-20.93-9.05-22.18-10.15-1.26-1.1-1.96-2.98-1.51-4.92s4.37-14.4,11.2-32.93,12.02-30.75,12.89-32.42c.88-1.66,2.63-2.63,4.34-2.76,.15-.01,.31-.02,.49-.02m0-6.51c-.34,0-.66,.01-1,.04-4.07,.31-7.75,2.7-9.6,6.22-1.2,2.27-6.64,15.31-13.24,33.2-6.79,18.41-10.86,31.23-11.43,33.7-.97,4.18,.39,8.5,3.55,11.29,2.48,2.18,7.13,5.06,24.22,11.37,16.92,6.24,22.43,7.08,25.58,7.08h.19c4.23-.04,8.09-2.44,10.07-6.28,1.17-2.26,6.4-14.66,13.18-33.06,6.66-18.07,10.76-30.96,11.38-33.54,1.06-4.42-.46-8.98-3.88-11.6l-.12-.09c-1.89-1.46-5.81-4.5-23.73-11.11-17.18-6.33-22.25-7.21-25.18-7.21h0Z"/><path class="e" d="M16.91,41.68c-.64,0-1.28-.24-1.77-.73l-7.13-7.13c-.98-.98-.98-2.56,0-3.54,.98-.98,2.56-.98,3.54,0l7.13,7.13c.98,.98,.98,2.56,0,3.54-.49,.49-1.13,.73-1.77,.73Z"/><path class="e" d="M12.6,52.11H2.5c-1.38,0-2.5-1.12-2.5-2.5s1.12-2.5,2.5-2.5H12.6c1.38,0,2.5,1.12,2.5,2.5s-1.12,2.5-2.5,2.5Z"/><path class="e" d="M27.34,37.37c-1.38,0-2.5-1.12-2.5-2.5v-10.1c0-1.38,1.12-2.5,2.5-2.5s2.5,1.12,2.5,2.5v10.1c0,1.38-1.12,2.5-2.5,2.5Z"/><path class="f" d="M63.66,34.47c3.21,0,9.15,.51,20.87,2.35,18.52,2.91,22.25,5.06,23.71,5.8,1.46,.74,2.51,2.5,2.42,4.7-.09,2.2-1.54,15.46-4.73,35.79-3.2,20.33-5.93,33.65-6.5,35.64-.56,2-2.11,3.36-3.74,3.73-.65,.14-1.68,.34-3.86,.34-3.31,0-9.24-.45-20.46-2.21-18.62-2.93-22.29-4.82-23.73-5.68-1.44-.86-2.5-2.63-2.42-4.7,.08-2.07,1.56-15.6,4.75-35.92,3.19-20.32,5.97-33.87,6.51-35.75s2.09-3.23,3.74-3.73c.61-.18,1.55-.36,3.43-.36m0-6.51h0c-2.2,0-3.84,.19-5.3,.63-3.9,1.16-7.01,4.29-8.13,8.15-.74,2.56-3.61,16.96-6.69,36.55-3.17,20.17-4.73,34.06-4.83,36.69-.16,4.34,1.98,8.38,5.59,10.53,2.87,1.71,8.01,3.68,26.05,6.52,9.82,1.54,16.84,2.29,21.47,2.29,2.69,0,4.18-.25,5.28-.5,4.11-.92,7.4-4.1,8.59-8.31,.72-2.54,3.49-16.24,6.66-36.4,3.11-19.8,4.69-33.77,4.81-36.52,.2-4.61-2.15-8.84-5.98-10.78l-.13-.07c-2.14-1.1-6.6-3.38-25.51-6.35-10.4-1.63-17.56-2.43-21.88-2.43h0Z"/><path class="c" d="M56.79,42.58c-20.37,0-24.61,1.26-27.22,2.55-3.63,1.8-6.19,5.43-6.69,9.46-.33,2.73-.93,17.93-.93,38.5s.59,35.47,.92,38.34c.5,4.37,3.22,8.08,7.08,9.69,3.12,1.3,8.53,2.5,26.82,2.5s23.63-1.19,26.79-2.48c3.89-1.59,6.62-5.31,7.12-9.7,.31-2.71,.92-17.18,.92-38.34s-.61-35.33-.92-38.17c-.51-4.64-3.46-8.52-7.52-9.88l-.14-.05c-2.3-.78-7.08-2.42-26.25-2.42h0Z" id="myFileLogo"/>
        <circle class="d" cx="47.21" cy="67.45" r="10.64"/>
    </g>
</svg>