<svg width="88" height="116" viewBox="0 0 88 116" fill="none" xmlns="http://www.w3.org/2000/svg">
<path d="M77 77V24.75L52.25 0H22C19.0826 0 16.2847 1.15893 14.2218 3.22183C12.1589 5.28473 11 8.08262 11 11V77C11 79.9174 12.1589 82.7153 14.2218 84.7782C16.2847 86.8411 19.0826 88 22 88H66C68.9174 88 71.7153 86.8411 73.7782 84.7782C75.8411 82.7153 77 79.9174 77 77ZM52.25 16.5C52.25 18.688 53.1192 20.7865 54.6664 22.3336C56.2135 23.8808 58.312 24.75 60.5 24.75H71.5V77C71.5 78.4587 70.9205 79.8576 69.8891 80.8891C68.8576 81.9205 67.4587 82.5 66 82.5H22C20.5413 82.5 19.1424 81.9205 18.1109 80.8891C17.0795 79.8576 16.5 78.4587 16.5 77V11C16.5 9.54131 17.0795 8.14236 18.1109 7.11091C19.1424 6.07946 20.5413 5.5 22 5.5H52.25V16.5Z" fill="black"/>
<path d="M25.3163 77.4781C24.2443 77.0494 23.3806 76.2212 22.9073 75.1681C21.8348 73.0341 22.1923 70.9001 23.3473 69.1071C24.4363 67.4186 26.2403 65.9831 28.2808 64.7786C30.8654 63.3127 33.5976 62.1236 36.4318 61.2311C38.6328 57.2744 40.5836 53.1835 42.2728 48.9826C41.2628 46.6879 40.471 44.3032 39.9078 41.8601C39.4348 39.6601 39.2533 37.4821 39.6548 35.6121C40.0673 33.6651 41.1618 31.9161 43.2298 31.0856C44.2858 30.6621 45.4298 30.4256 46.5408 30.6621C47.0996 30.7811 47.625 31.023 48.0788 31.3702C48.5325 31.7174 48.9033 32.1613 49.1643 32.6696C49.6483 33.5716 49.8243 34.6276 49.8628 35.6286C49.9013 36.6626 49.7968 37.8066 49.6043 39.0056C49.1423 41.8106 48.1193 45.2426 46.7443 48.8726C48.2617 52.1177 50.0655 55.221 52.1343 58.1456C54.5823 57.9523 57.0446 58.0445 59.4713 58.4206C61.4733 58.7836 63.5083 59.4931 64.7513 60.9781C65.4113 61.7701 65.8128 62.7381 65.8513 63.8271C65.8898 64.8831 65.5928 65.9281 65.0923 66.9236C64.6587 67.8461 63.9865 68.636 63.1453 69.2116C62.3137 69.7541 61.3319 70.0197 60.3403 69.9706C58.5198 69.8936 56.7433 68.8926 55.2088 67.6771C53.3428 66.1343 51.6615 64.381 50.1983 62.4521C46.4789 62.8742 42.8037 63.6214 39.2148 64.6851C37.5712 67.5999 35.6952 70.3772 33.6048 72.9901C31.9988 74.9151 30.2553 76.5981 28.5063 77.3186C27.5014 77.7732 26.3615 77.8302 25.3163 77.4781ZM32.9008 67.0226C31.9878 67.4406 31.1408 67.8806 30.3763 68.3316C28.5723 69.3986 27.4008 70.4381 26.8178 71.3401C26.3008 72.1376 26.2898 72.7151 26.5978 73.3256C26.6528 73.4466 26.7078 73.5236 26.7408 73.5676C26.8064 73.5501 26.8707 73.5281 26.9333 73.5016C27.6868 73.1936 28.8858 72.2091 30.4258 70.3556C31.3016 69.2833 32.1275 68.1711 32.9008 67.0226ZM41.9208 59.7076C43.7574 59.279 45.6105 58.9249 47.4758 58.6461C46.4743 57.1136 45.5385 55.5392 44.6708 53.9271C43.8081 55.8774 42.8911 57.8031 41.9208 59.7021V59.7076ZM55.3738 62.1826C56.1988 63.0791 57.0018 63.8326 57.7663 64.4376C59.0863 65.4826 60.0048 65.8291 60.5053 65.8456C60.6393 65.8631 60.7752 65.834 60.8903 65.7631C61.1191 65.5824 61.2972 65.3456 61.4073 65.0756C61.6028 64.7406 61.7142 64.3631 61.7318 63.9756C61.7286 63.8464 61.6776 63.723 61.5888 63.6291C61.3028 63.2881 60.4888 62.7931 58.7398 62.4796C57.6272 62.2935 56.5017 62.1961 55.3738 62.1881V62.1826ZM44.4288 42.8996C44.8917 41.4065 45.2591 39.8854 45.5288 38.3456C45.6993 37.3116 45.7653 36.4591 45.7378 35.7881C45.7393 35.4179 45.6798 35.05 45.5618 34.6991C45.2866 34.7332 45.018 34.8073 44.7643 34.9191C44.2858 35.1116 43.8953 35.5021 43.6863 36.4756C43.4663 37.5316 43.5213 39.0551 43.9393 40.9966C44.0713 41.6071 44.2363 42.2451 44.4343 42.8996H44.4288Z" fill="black"/>
<path d="M26.0665 111V96.54H31.3865C32.4398 96.54 33.3832 96.7233 34.2165 97.09C35.0498 97.45 35.7065 97.9833 36.1865 98.69C36.6732 99.3967 36.9165 100.26 36.9165 101.28C36.9165 102.24 36.7032 103.06 36.2765 103.74C35.8498 104.42 35.2498 104.94 34.4765 105.3C33.7098 105.66 32.8065 105.84 31.7665 105.84H29.0065V111H26.0665ZM28.9765 103.58H31.6865C32.4198 103.58 33.0198 103.347 33.4865 102.88C33.9532 102.407 34.1865 101.823 34.1865 101.13C34.1865 100.41 33.9398 99.84 33.4465 99.42C32.9532 98.9933 32.3532 98.78 31.6465 98.78H28.9765V103.58ZM39.3134 111V96.54C39.3867 96.54 39.59 96.54 39.9234 96.54C40.2634 96.54 40.66 96.54 41.1134 96.54C41.5734 96.54 42.03 96.5433 42.4834 96.55C42.9434 96.55 43.3267 96.5533 43.6334 96.56C45.3867 96.6 46.8167 96.9133 47.9234 97.5C49.03 98.0867 49.84 98.9067 50.3534 99.96C50.8734 101.013 51.1334 102.26 51.1334 103.7C51.1334 105.2 50.86 106.497 50.3134 107.59C49.7667 108.677 48.93 109.517 47.8034 110.11C46.6834 110.703 45.26 111 43.5334 111H39.3134ZM42.2534 108.64H43.5934C44.42 108.64 45.17 108.48 45.8434 108.16C46.5234 107.84 47.0667 107.317 47.4734 106.59C47.88 105.863 48.0834 104.893 48.0834 103.68C48.0834 102.553 47.9034 101.64 47.5434 100.94C47.1834 100.233 46.67 99.7167 46.0034 99.39C45.3367 99.0633 44.5467 98.9 43.6334 98.9H42.2534V108.64ZM53.9079 111V96.54H63.7479L63.7379 98.98H56.8479V102.61H62.8179V105H56.8479V111H53.9079Z" fill="black"/>
</svg>
