<svg width="880" height="154" viewBox="0 0 880 154" fill="none" xmlns="http://www.w3.org/2000/svg">
<path d="M445.933 67.8996L455.421 58.4895V29.9946L426.929 1.49976H332.056L303.624 29.9946V11.0275L294.107 1.49976H256.158L246.67 11.0275V29.9946L227.696 49.0206L208.721 29.9946V11.0275L199.234 1.49976H161.284L151.797 11.0275L142.31 1.49976H104.36L94.8732 11.0275V49.0206L47.4366 1.49976H9.48732L0 11.0275V143.974L9.48732 153.502H47.4366L56.9239 143.974V105.981L104.36 153.502H142.31L151.797 143.974V67.9878L199.234 115.479V143.974L208.721 153.502H246.67L256.158 143.974V115.479L303.624 67.9878V124.978L332.056 153.502H426.929L455.421 124.978V96.5121L445.933 86.9844H398.497V96.5121H360.518V58.4895H398.497V67.8996H445.933Z" fill="black"/>
<path d="M449.928 5.4108H450.545C451.279 5.4108 451.866 5.17554 451.866 4.58741C451.866 3.99928 451.485 3.70522 450.662 3.70522C450.419 3.66295 450.171 3.66295 449.928 3.70522V5.32258V5.4108ZM449.928 8.61611H448.606V2.91124C449.326 2.80578 450.052 2.74684 450.78 2.73481C451.461 2.66044 452.147 2.82688 452.718 3.20531C452.91 3.33981 453.065 3.52106 453.168 3.732C453.271 3.94294 453.318 4.17661 453.306 4.41098C453.286 4.73458 453.16 5.04267 452.948 5.28731C452.736 5.53195 452.448 5.69943 452.131 5.76368C452.689 5.94012 452.983 6.38121 453.13 7.14578C453.203 7.63627 453.351 8.11244 453.57 8.55729H452.16C451.943 8.11158 451.795 7.63575 451.72 7.14578C451.72 6.55765 451.279 6.29299 450.545 6.29299H449.928V8.55729V8.61611ZM446.433 5.67546C446.417 6.2684 446.52 6.85848 446.736 7.41086C446.952 7.96324 447.276 8.46673 447.689 8.89159C448.103 9.31646 448.597 9.6541 449.143 9.88457C449.689 10.115 450.275 10.2337 450.868 10.2335C451.773 10.2569 452.664 10.0095 453.428 9.52313C454.192 9.03673 454.794 8.33331 455.157 7.50278C455.52 6.67224 455.627 5.75231 455.464 4.86054C455.302 3.96876 454.878 3.14565 454.246 2.49638C453.615 1.84711 452.804 1.40117 451.918 1.21556C451.031 1.02994 450.11 1.11307 449.271 1.45433C448.433 1.79559 447.714 2.37947 447.209 3.13136C446.703 3.88326 446.433 4.76902 446.433 5.67546ZM456.654 5.67546C456.695 6.84656 456.386 8.00322 455.766 8.99709C455.146 9.99096 454.243 10.7767 453.174 11.2536C452.105 11.7305 450.918 11.8767 449.765 11.6735C448.612 11.4704 447.546 10.9271 446.704 10.1134C445.862 9.29969 445.282 8.25262 445.038 7.10651C444.794 5.96039 444.898 4.76748 445.336 3.68077C445.773 2.59406 446.526 1.6631 447.496 1.00729C448.466 0.351478 449.609 0.000719061 450.78 1.10531e-06C452.303 -0.000933111 453.767 0.590368 454.863 1.64919C455.959 2.70802 456.601 4.15159 456.654 5.67546Z" fill="black"/>
<path d="M492.665 0.911621H505.648C514.9 0.911621 520.334 6.55767 520.334 15.9089C520.334 25.7895 514.694 31.1415 505.648 31.1415H492.665V0.911621ZM500.537 24.4368H504.267C510.142 24.4368 512.58 21.9961 512.58 15.9383C512.717 14.819 512.595 13.683 512.223 12.6184C511.852 11.5537 511.241 10.5889 510.437 9.79863C509.633 9.00833 508.659 8.41371 507.589 8.06078C506.519 7.70785 505.383 7.60608 504.267 7.76333H500.537V24.4368Z" fill="black"/>
<path d="M529.762 21.9078C529.716 22.5662 529.809 23.2269 530.036 23.8466C530.263 24.4662 530.619 25.0307 531.08 25.5029C531.54 25.9751 532.095 26.3444 532.709 26.5864C533.322 26.8284 533.98 26.9376 534.638 26.9069C535.484 26.9495 536.323 26.744 537.054 26.3157C537.784 25.8873 538.374 25.2547 538.75 24.4956H545.477C544.767 26.7732 543.297 28.7375 541.313 30.0598C539.329 31.382 536.952 31.9819 534.579 31.759C532.988 31.903 531.385 31.6999 529.88 31.1634C528.375 30.627 527.005 29.7702 525.863 28.652C524.721 27.5337 523.834 26.1808 523.265 24.6865C522.696 23.1921 522.458 21.592 522.566 19.9964C522.562 18.4601 522.864 16.9385 523.456 15.521C524.047 14.1034 524.916 12.8186 526.011 11.7419C527.105 10.6652 528.404 9.81846 529.83 9.25137C531.256 8.68428 532.781 8.4083 534.315 8.43966C542.157 8.43966 546.064 14.321 545.77 21.8196L529.762 21.9078ZM538.574 17.8791C538.583 16.7263 538.143 15.6154 537.348 14.7813C536.553 13.9471 535.466 13.4551 534.315 13.4093C533.121 13.4298 531.978 13.902 531.117 14.7312C530.256 15.5604 529.741 16.685 529.674 17.8791H538.574Z" fill="black"/>
<path d="M548.678 9.32177H555.522V11.8507C556.159 10.8729 557.03 10.07 558.056 9.51531C559.082 8.96062 560.23 8.67169 561.397 8.67483C568.299 8.67483 571.207 14.5561 571.207 20.7903C571.207 26.4952 568.27 31.9059 561.955 31.9059C560.75 31.9701 559.549 31.7352 558.458 31.2222C557.366 30.7091 556.418 29.9338 555.698 28.9653V38.6989H548.678V9.32177ZM555.61 20.0551C555.61 23.9074 556.697 26.4069 559.957 26.4069C563.218 26.4069 564.275 23.084 564.275 20.0551C564.275 17.0263 563.159 14.1738 559.987 14.1738C558.048 14.0268 555.61 15.3795 555.61 19.9081V20.0551Z" fill="black"/>
<path d="M574.144 15.9382C574.14 14.7435 574.453 13.569 575.052 12.5355C575.651 11.502 576.513 10.6465 577.551 10.0569C579.72 8.97801 582.122 8.4527 584.542 8.52781C589.741 8.52781 594.764 9.67466 594.764 15.9088V25.4954C594.617 27.4177 594.908 29.3482 595.615 31.1414H588.39C588.153 30.4674 588.005 29.7656 587.949 29.0535C586.988 29.9671 585.853 30.6775 584.611 31.1423C583.37 31.6071 582.048 31.8169 580.724 31.7589C576.553 31.7589 573.263 29.6417 573.263 25.1131C573.263 17.9673 581.017 18.526 586.011 17.4968C587.244 17.2615 587.92 16.8204 587.92 15.4677C587.92 14.115 585.923 13.2034 584.454 13.2034C584.039 13.1456 583.617 13.1705 583.212 13.2769C582.806 13.3833 582.426 13.5689 582.093 13.8232C581.76 14.0775 581.48 14.3953 581.27 14.7583C581.061 15.1213 580.925 15.5224 580.87 15.9382H574.144ZM583.426 27.3186C586.862 27.3186 588.008 25.3777 587.832 20.8491C586.406 21.4199 584.917 21.8149 583.397 22.0254C581.781 22.4077 580.459 23.084 580.459 24.966C580.459 26.8481 581.84 27.3186 583.426 27.3186Z" fill="black"/>
<path d="M598.935 9.32196H605.925V13.1742C606.42 11.851 607.327 10.7222 608.512 9.9544C609.696 9.18661 611.096 8.82055 612.505 8.91027C613.076 8.90073 613.647 8.95 614.208 9.0573V15.6149C613.309 15.361 612.381 15.2227 611.447 15.2033C610.741 15.1488 610.032 15.2445 609.365 15.484C608.699 15.7235 608.09 16.1015 607.58 16.593C607.069 17.0845 606.669 17.6785 606.404 18.336C606.139 18.9936 606.016 19.6997 606.043 20.4082V31.2886H598.847L598.935 9.32196Z" fill="black"/>
<path d="M630.187 13.8211H625.752V23.8193C625.752 25.5543 626.78 25.9366 628.336 25.9366H630.187V31.2298C628.895 31.2298 627.573 31.4356 626.251 31.4356C620.142 31.4356 618.555 29.6418 618.555 23.7017V13.8211H614.943V9.32195H618.555V2.52905H625.752V9.32195H630.187V13.8211Z" fill="black"/>
<path d="M633.036 9.32193H639.997V12.2626C640.642 11.1569 641.563 10.2389 642.671 9.59938C643.779 8.95984 645.034 8.62092 646.312 8.61618C647.611 8.48461 648.918 8.75529 650.058 9.39163C651.198 10.028 652.115 10.9993 652.686 12.1744C653.438 11.0551 654.459 10.1429 655.655 9.52119C656.85 8.89951 658.183 8.58833 659.53 8.61618C666.491 8.61618 667.255 13.9093 667.255 18.1145V31.2298H660.294V18.1439C660.294 15.762 659.148 14.3798 657.356 14.3798C654.272 14.3798 653.949 16.7324 653.949 20.2611V31.0239H646.782V18.6438C646.782 16.056 646.019 14.4681 644.08 14.4681C641.495 14.4681 640.409 15.9384 640.409 20.3494V31.0533H633.212L633.036 9.32193Z" fill="black"/>
<path d="M677.477 21.9078C677.43 22.5688 677.524 23.2322 677.753 23.8539C677.982 24.4757 678.34 25.0417 678.804 25.5144C679.267 25.9871 679.826 26.3557 680.443 26.5958C681.06 26.8359 681.721 26.9419 682.382 26.9069C683.224 26.9513 684.06 26.7462 684.786 26.3174C685.512 25.8885 686.096 25.2548 686.465 24.4956H693.191C692.481 26.7732 691.011 28.7375 689.027 30.0598C687.044 31.382 684.666 31.9819 682.294 31.759C680.703 31.903 679.1 31.6999 677.595 31.1634C676.09 30.627 674.719 29.7702 673.577 28.652C672.435 27.5337 671.549 26.1808 670.98 24.6865C670.41 23.1921 670.172 21.592 670.28 19.9964C670.276 18.4601 670.579 16.9385 671.17 15.521C671.762 14.1034 672.63 12.8186 673.725 11.7419C674.819 10.6652 676.118 9.81846 677.544 9.25137C678.97 8.68428 680.495 8.4083 682.029 8.43966C689.901 8.43966 693.778 14.321 693.485 21.8196L677.477 21.9078ZM686.288 17.8791C686.297 16.7263 685.857 15.6154 685.062 14.7813C684.268 13.9471 683.18 13.4551 682.029 13.4093C680.835 13.4298 679.692 13.902 678.832 14.7312C677.971 15.5604 677.455 16.685 677.389 17.8791H686.288Z" fill="black"/>
<path d="M696.393 9.32181H703.354V12.2625C704.106 11.1232 705.126 10.1867 706.324 9.53541C707.523 8.88412 708.863 8.53809 710.227 8.52783C717.541 8.52783 718.158 13.8798 718.158 17.0557V31.1414H710.961V20.5257C710.961 17.585 711.284 14.4679 707.378 14.4679C704.676 14.4679 703.471 16.7322 703.471 19.1436V31.1414H696.304L696.393 9.32181Z" fill="black"/>
<path d="M735.223 13.8211H730.788V23.8193C730.788 25.5543 731.786 25.9366 733.343 25.9366C733.931 25.9366 734.577 25.9366 735.223 25.9366V31.2298C733.901 31.2298 732.58 31.4356 731.287 31.4356C725.148 31.4356 723.591 29.6418 723.591 23.7017V13.8211H719.949V9.32195H723.591V2.52905H730.788V9.32195H735.223V13.8211Z" fill="black"/>
<path d="M760.542 8.52782C762.874 8.48696 765.166 9.14194 767.125 10.4093C769.083 11.6767 770.621 13.4992 771.542 15.6446C772.463 17.79 772.725 20.1613 772.295 22.4564C771.866 24.7515 770.763 26.8666 769.128 28.5323C767.494 30.198 765.401 31.3389 763.116 31.8097C760.832 32.2805 758.459 32.0599 756.3 31.1759C754.141 30.292 752.294 28.7848 750.994 26.8463C749.694 24.9077 748.999 22.6255 748.999 20.2904C748.93 18.7448 749.179 17.2015 749.732 15.7567C750.285 14.3119 751.129 12.9967 752.212 11.8931C753.296 10.7894 754.594 9.92102 756.027 9.34203C757.46 8.76304 758.997 8.48588 760.542 8.52782ZM760.542 26.1717C763.861 26.1717 764.919 22.8782 764.919 20.0846C764.919 17.291 763.861 13.9386 760.542 13.9386C757.223 13.9386 756.195 17.291 756.195 20.0846C756.195 22.8782 757.223 26.2599 760.542 26.2599V26.1717Z" fill="black"/>
<path d="M776.256 13.821H772.79V9.32181H776.256C776.256 3.02883 778.459 1.05859 784.569 1.05859C785.714 1.05859 786.889 1.05859 788.035 1.20562V6.26354C787.389 6.22079 786.742 6.22079 786.096 6.26354C784.451 6.26354 783.423 6.46938 783.423 8.46902V9.32181H787.741V13.968H783.423V31.2885H776.256V13.821Z" fill="black"/>
<path d="M492.577 45.4624H500.449V56.3722H510.817V45.4624H518.66V75.6923H510.817V63.2533H500.449V75.6923H492.577V45.4624Z" fill="black"/>
<path d="M533.551 53.0788C535.883 53.0379 538.175 53.6929 540.134 54.9603C542.093 56.2277 543.631 58.0501 544.552 60.1956C545.472 62.341 545.735 64.7122 545.305 67.0074C544.875 69.3025 543.772 71.4176 542.138 73.0833C540.503 74.7489 538.41 75.8898 536.126 76.3606C533.841 76.8314 531.468 76.6108 529.31 75.7269C527.151 74.843 525.304 73.3358 524.003 71.3972C522.703 69.4587 522.008 67.1765 522.008 64.8414C521.943 63.2968 522.196 61.7554 522.75 60.3126C523.305 58.8698 524.149 57.5563 525.232 56.4536C526.314 55.3509 527.611 54.4823 529.042 53.9018C530.473 53.3213 532.008 53.0412 533.551 53.0788ZM533.551 70.7227C536.87 70.7227 537.928 67.4292 537.928 64.6355C537.928 61.8419 536.87 58.4896 533.551 58.4896C530.232 58.4896 529.175 61.8419 529.175 64.6355C529.175 67.4292 530.203 70.8109 533.551 70.8109V70.7227Z" fill="black"/>
<path d="M548.091 53.7257H555.052V56.6663C555.694 55.565 556.611 54.6497 557.713 54.0104C558.815 53.3711 560.064 53.0298 561.338 53.0199C562.64 52.8864 563.953 53.1559 565.098 53.7921C566.243 54.4283 567.165 55.4007 567.741 56.5781C568.493 55.4589 569.514 54.5466 570.71 53.9249C571.905 53.3033 573.238 52.9921 574.585 53.0199C581.546 53.0199 582.31 58.3131 582.31 62.5182V75.6335H575.114V62.7829C575.114 60.401 573.968 59.0189 572.176 59.0189C569.239 59.0189 568.798 61.3714 568.798 64.9002V75.6629H561.632V63.1946C561.632 60.6068 560.868 59.0189 558.929 59.0189C556.345 59.0189 555.228 60.4892 555.228 64.9002V75.6041H548.091V53.7257Z" fill="black"/>
<path d="M592.502 66.4586C592.46 67.1185 592.557 67.7798 592.788 68.3994C593.018 69.0191 593.377 69.5831 593.84 70.0548C594.302 70.5265 594.859 70.8952 595.474 71.137C596.089 71.3787 596.747 71.488 597.407 71.4577C598.253 71.5003 599.092 71.2948 599.823 70.8665C600.553 70.4381 601.143 69.8055 601.519 69.0464H608.246C607.535 71.3294 606.06 73.2977 604.071 74.6204C602.081 75.9432 599.697 76.5398 597.319 76.3098C595.729 76.4544 594.127 76.2514 592.624 75.7148C591.12 75.1782 589.751 74.3208 588.611 73.202C587.471 72.0832 586.588 70.7298 586.022 69.2353C585.457 67.7409 585.222 66.1413 585.335 64.5472C585.331 63.0109 585.633 61.4893 586.225 60.0718C586.816 58.6542 587.685 57.3694 588.78 56.2927C589.874 55.216 591.173 54.3692 592.599 53.8022C594.025 53.2351 595.55 52.9591 597.084 52.9904C604.927 52.9904 608.833 58.8717 608.539 66.3704L592.502 66.4586ZM601.314 62.4299C601.322 61.2771 600.883 60.1662 600.088 59.3321C599.293 58.4979 598.205 58.0059 597.055 57.9601C595.857 57.9801 594.711 58.4513 593.846 59.2798C592.98 60.1084 592.458 61.2332 592.385 62.4299H601.314Z" fill="black"/>
<path d="M611.624 45.4624H618.82V75.6923H611.624V45.4624Z" fill="black"/>
<path d="M629.071 66.4586C629.024 67.1196 629.118 67.7829 629.347 68.4047C629.576 69.0265 629.934 69.5925 630.398 70.0652C630.862 70.5379 631.42 70.9065 632.037 71.1466C632.654 71.3866 633.315 71.4927 633.976 71.4577C634.818 71.5021 635.654 71.297 636.38 70.8681C637.107 70.4393 637.69 69.8056 638.059 69.0464H644.785C644.084 71.3354 642.612 73.3103 640.619 74.6347C638.627 75.9591 636.238 76.551 633.858 76.3098C632.266 76.459 630.661 76.2593 629.154 75.7248C627.647 75.1902 626.274 74.3335 625.131 73.2142C623.987 72.0949 623.101 70.7398 622.534 69.2431C621.967 67.7464 621.732 66.144 621.845 64.5472C621.841 63.0109 622.143 61.4893 622.735 60.0718C623.326 58.6542 624.195 57.3694 625.29 56.2927C626.384 55.216 627.683 54.3692 629.109 53.8022C630.535 53.2351 632.06 52.9591 633.594 52.9904C641.466 52.9904 645.343 58.8717 645.049 66.3704L629.071 66.4586ZM637.882 62.4299C637.888 61.3171 637.478 60.2422 636.734 59.4156C635.99 58.5889 634.965 58.0699 633.858 57.9601C632.664 57.9806 631.522 58.4528 630.661 59.282C629.8 60.1111 629.284 61.2358 629.218 62.4299H637.882Z" fill="black"/>
<path d="M653.626 68.4582C653.612 68.9295 653.712 69.3973 653.916 69.8221C654.121 70.2469 654.424 70.6162 654.801 70.8989C655.591 71.4265 656.525 71.6939 657.474 71.6635C658.855 71.6635 660.852 71.0754 660.852 69.3404C660.852 67.6054 658.59 67.3113 657.327 67.0173C652.804 65.8704 647.135 65.7528 647.135 59.8127C647.135 54.5195 652.863 53.0786 657.151 53.0786C661.968 53.0786 667.02 54.4901 667.255 60.195H660.617C660.652 59.8237 660.586 59.4497 660.426 59.1131C660.266 58.7764 660.017 58.4897 659.706 58.2836C659.007 57.8954 658.214 57.712 657.415 57.7542C656.24 57.7542 654.331 57.7542 654.331 59.401C654.331 61.4595 659.148 61.8417 662.438 62.5769C663.918 62.7235 665.297 63.3982 666.321 64.478C667.346 65.5578 667.948 66.9705 668.019 68.4582C668.019 74.3395 662.438 76.2803 657.503 76.2803C652.569 76.2803 646.988 74.5453 646.782 68.4288L653.626 68.4582Z" fill="black"/>
<path d="M676.566 68.4582C676.552 68.9295 676.652 69.3973 676.856 69.8221C677.06 70.2469 677.364 70.6162 677.741 70.8989C678.521 71.4224 679.445 71.6897 680.384 71.6635C681.794 71.6635 683.792 71.0754 683.792 69.3404C683.792 67.6054 681.53 67.3113 680.267 67.0173C675.744 65.8704 670.075 65.7528 670.075 59.8127C670.075 54.5195 675.802 53.0786 680.091 53.0786C684.908 53.0786 689.96 54.4901 690.195 60.195H683.557C683.592 59.8237 683.526 59.4497 683.366 59.1131C683.205 58.7764 682.957 58.4897 682.646 58.2836C681.947 57.8954 681.153 57.712 680.355 57.7542C679.18 57.7542 677.271 57.7542 677.271 59.401C677.271 61.4595 682.088 61.8417 685.378 62.5769C686.858 62.7235 688.237 63.3982 689.261 64.478C690.286 65.5578 690.888 66.9705 690.959 68.4582C690.959 74.3395 685.378 76.2803 680.443 76.2803C675.509 76.2803 669.928 74.5453 669.693 68.4288L676.566 68.4582Z" fill="black"/>
<path d="M712.518 65.5177C712.694 69.0759 714.897 70.2227 718.393 70.2227C720.742 70.2227 723.21 69.3699 723.21 67.135C723.21 64.9001 718.892 63.9591 714.545 62.7241C710.198 61.489 705.733 59.5776 705.733 53.9021C705.733 47.3151 712.371 44.7273 718.04 44.7273C723.709 44.7273 730.083 47.6679 730.112 54.4608H721.976C721.976 51.6966 719.509 50.8144 717.1 50.8144C715.426 50.8144 713.311 51.4026 713.311 53.4022C713.311 55.4019 717.658 56.137 722.123 57.3721C726.587 58.6072 730.935 60.6362 730.935 66.194C730.935 73.8691 724.443 76.3099 717.805 76.3099C711.167 76.3099 704.734 73.3692 704.705 65.5177H712.518Z" fill="black"/>
<path d="M739.893 66.4585C739.851 67.1184 739.949 67.7797 740.179 68.3994C740.41 69.019 740.768 69.583 741.231 70.0547C741.694 70.5264 742.251 70.8951 742.865 71.1369C743.48 71.3786 744.139 71.4879 744.798 71.4576C745.644 71.5002 746.483 71.2947 747.214 70.8664C747.944 70.438 748.534 69.8054 748.911 69.0463H755.608C754.907 71.3299 753.44 73.3008 751.454 74.6246C749.467 75.9485 747.085 76.5438 744.71 76.3097C743.121 76.4543 741.518 76.2513 740.015 75.7147C738.511 75.1781 737.142 74.3207 736.002 73.2019C734.862 72.0831 733.979 70.7297 733.414 69.2352C732.848 67.7408 732.613 66.1412 732.726 64.5471C732.718 63.0097 733.018 61.4863 733.608 60.0669C734.198 58.6475 735.067 57.361 736.162 56.2835C737.257 55.206 738.557 54.3594 739.985 53.7938C741.413 53.2281 742.94 52.9549 744.475 52.9904C752.347 52.9904 756.224 58.8717 755.931 66.3703L739.893 66.4585ZM748.705 62.4298C748.713 61.2721 748.27 60.157 747.469 59.322C746.667 58.4871 745.572 57.9984 744.417 57.9601C743.224 57.9873 742.086 58.4618 741.226 59.2896C740.367 60.1174 739.849 61.2381 739.776 62.4298H748.705Z" fill="black"/>
<path d="M758.956 53.7257H766.035V57.5779C766.548 56.2817 767.458 55.1819 768.635 54.4368C769.812 53.6917 771.195 53.3398 772.585 53.4316C773.151 53.3734 773.722 53.3734 774.288 53.4316V59.9892C773.389 59.7353 772.461 59.597 771.527 59.5775C770.812 59.5095 770.09 59.596 769.41 59.8312C768.731 60.0665 768.11 60.445 767.589 60.9412C767.069 61.4375 766.66 62.0398 766.392 62.7076C766.124 63.3753 766.002 64.0929 766.035 64.8119V75.6923H758.868L758.956 53.7257Z" fill="black"/>
<path d="M790.296 75.6922H782.013L774.846 53.7255H782.336L786.184 68.1347L790.267 53.6079H797.551L790.296 75.6922Z" fill="black"/>
<path d="M806.569 50.9614H799.373V45.4624H806.569V50.9614ZM799.373 53.7256H806.569V75.6923H799.373V53.7256Z" fill="black"/>
<path d="M824.985 61.7535C824.925 60.8695 824.523 60.0437 823.865 59.451C823.208 58.8582 822.345 58.545 821.461 58.5776C817.466 58.5776 816.82 62.0182 816.82 65.0764C816.82 68.1347 818.053 70.8107 821.079 70.8107C821.598 70.8425 822.118 70.7694 822.608 70.596C823.098 70.4225 823.548 70.1522 823.932 69.8011C824.315 69.4499 824.624 69.0251 824.841 68.5519C825.057 68.0788 825.176 67.5669 825.191 67.0467H832.152C831.898 69.7292 830.601 72.2041 828.54 73.9372C826.479 75.6703 823.821 76.5225 821.138 76.3097C819.639 76.3907 818.14 76.1618 816.734 75.6373C815.327 75.1128 814.044 74.3038 812.964 73.261C811.884 72.2181 811.029 70.9636 810.455 69.5757C809.88 68.1878 809.597 66.6963 809.623 65.1941C809.502 63.6276 809.713 62.0533 810.243 60.5742C810.772 59.0952 811.608 57.7449 812.695 56.612C813.782 55.479 815.096 54.589 816.551 54.0003C818.006 53.4117 819.569 53.1376 821.138 53.1962C826.571 53.1962 831.447 56.1369 831.947 61.8711L824.985 61.7535Z" fill="black"/>
<path d="M841.052 66.4586C841.005 67.1196 841.1 67.783 841.328 68.4047C841.557 69.0265 841.915 69.5925 842.379 70.0652C842.843 70.5379 843.402 70.9065 844.019 71.1466C844.636 71.3867 845.296 71.4927 845.957 71.4577C846.799 71.5021 847.636 71.297 848.362 70.8682C849.088 70.4393 849.672 69.8056 850.04 69.0464H856.766C856.061 71.327 854.593 73.2946 852.608 74.6176C850.623 75.9407 848.243 76.5383 845.869 76.3098C844.277 76.459 842.672 76.2593 841.165 75.7248C839.657 75.1902 838.285 74.3335 837.141 73.2142C835.998 72.0949 835.112 70.7398 834.545 69.2431C833.977 67.7464 833.742 66.144 833.856 64.5472C833.852 63.0109 834.154 61.4893 834.746 60.0718C835.337 58.6542 836.206 57.3694 837.3 56.2927C838.395 55.216 839.694 54.3692 841.12 53.8022C842.546 53.2351 844.071 52.9591 845.605 52.9904C853.477 52.9904 857.354 58.8717 857.06 66.3704L841.052 66.4586ZM849.864 62.4299C849.872 61.2771 849.433 60.1662 848.638 59.3321C847.843 58.4979 846.755 58.0059 845.605 57.9601C844.41 57.9806 843.268 58.4528 842.407 59.282C841.546 60.1111 841.031 61.2358 840.964 62.4299H849.864Z" fill="black"/>
<path d="M865.578 68.4582C865.568 68.9321 865.671 69.4015 865.881 69.8265C866.091 70.2515 866.4 70.6194 866.782 70.8989C867.563 71.4224 868.487 71.6897 869.426 71.6635C870.836 71.6635 872.804 71.0754 872.804 69.3404C872.804 67.6054 870.571 67.3113 869.308 67.0173C864.785 65.8704 859.116 65.7528 859.116 59.8127C859.116 54.5195 864.814 53.0786 869.132 53.0786C873.949 53.0786 879.001 54.4901 879.236 60.195H872.598C872.634 59.8237 872.568 59.4497 872.407 59.1131C872.247 58.7764 871.998 58.4897 871.688 58.2836C870.987 57.8998 870.194 57.7166 869.397 57.7542C868.222 57.7542 866.313 57.7542 866.313 59.401C866.313 61.4595 871.13 61.8417 874.419 62.5769C875.9 62.7235 877.278 63.3982 878.303 64.478C879.327 65.5578 879.93 66.9705 880 68.4582C880 74.3395 874.419 76.2803 869.485 76.2803C864.55 76.2803 858.94 74.5453 858.734 68.4288L865.578 68.4582Z" fill="black"/>
<path d="M491.608 88.9253H502.387C510.377 88.9253 513.842 94.8066 513.842 101.952C513.842 109.098 510.377 114.95 502.387 114.95H491.608V88.9253ZM496.16 111.245H500.625C507.762 111.245 509.437 107.157 509.437 101.952C509.437 96.7474 507.909 92.6599 500.625 92.6599H496.16V111.245Z" fill="black"/>
<path d="M519.923 106.599C519.843 107.307 519.916 108.024 520.134 108.702C520.353 109.38 520.713 110.004 521.191 110.532C521.668 111.061 522.253 111.481 522.905 111.766C523.557 112.051 524.263 112.194 524.975 112.186C525.989 112.281 527.004 112.018 527.846 111.444C528.688 110.87 529.303 110.019 529.586 109.039H533.493C533.064 110.949 531.973 112.644 530.413 113.823C528.854 115.003 526.926 115.59 524.975 115.479C523.688 115.545 522.403 115.328 521.21 114.843C520.017 114.358 518.944 113.617 518.068 112.673C517.191 111.728 516.532 110.602 516.137 109.375C515.742 108.148 515.621 106.849 515.781 105.569C515.659 104.262 515.82 102.945 516.254 101.706C516.687 100.467 517.383 99.3366 518.293 98.3918C519.203 97.4471 520.306 96.7102 521.527 96.2317C522.748 95.7531 524.058 95.5442 525.367 95.6191C526.676 95.6941 527.953 96.0511 529.112 96.6659C530.27 97.2807 531.282 98.1386 532.079 99.1811C532.875 100.224 533.438 101.426 533.727 102.706C534.017 103.986 534.027 105.314 533.757 106.599H519.923ZM529.615 103.864C529.615 102.577 529.105 101.343 528.196 100.433C527.287 99.5229 526.054 99.0117 524.769 99.0117C523.484 99.0117 522.251 99.5229 521.342 100.433C520.433 101.343 519.923 102.577 519.923 103.864H529.615Z" fill="black"/>
<path d="M536.312 96.1299H540.248V98.6588C540.864 97.6764 541.738 96.8824 542.774 96.3638C543.81 95.8451 544.968 95.6218 546.123 95.7182C551.997 95.7182 554.935 100.247 554.935 105.746C554.935 111.245 552.408 115.597 546.828 115.597C545.618 115.671 544.409 115.441 543.311 114.928C542.213 114.414 541.261 113.633 540.542 112.656V122.066H536.4L536.312 96.1299ZM545.594 98.8941C542.099 98.8941 540.307 101.541 540.307 105.569C540.307 109.598 542.246 112.245 545.741 112.245C549.53 112.245 550.94 108.892 550.94 105.628C550.94 102.364 549.001 98.8941 545.741 98.8941H545.594Z" fill="black"/>
<path d="M573.41 110.774C573.41 111.774 573.616 112.186 574.379 112.186C574.721 112.21 575.065 112.21 575.407 112.186V115.126C574.563 115.411 573.683 115.579 572.793 115.626C571.119 115.626 569.856 115.038 569.591 113.303C567.779 114.857 565.456 115.685 563.071 115.626C562.283 115.703 561.487 115.619 560.732 115.38C559.977 115.141 559.278 114.751 558.677 114.235C558.076 113.719 557.586 113.086 557.236 112.375C556.885 111.664 556.682 110.889 556.638 110.098C556.638 105.422 560.369 104.658 563.864 104.217C566.801 103.658 569.503 103.981 569.503 101.541C569.503 99.0999 567.3 99.0117 565.626 99.0117C563.276 99.0117 561.661 99.9527 561.455 101.952H557.314C557.608 97.1296 561.72 95.6887 565.861 95.6887C569.533 95.6887 573.41 97.1885 573.41 101.158V110.774ZM569.239 105.51C567.614 106.185 565.885 106.573 564.128 106.657C562.336 106.951 560.75 107.598 560.75 109.774C560.75 111.951 563.1 112.186 564.569 112.186C566.037 112.186 569.239 111.245 569.239 108.628V105.51Z" fill="black"/>
<path d="M577.375 96.1299H581.252V99.7763C581.641 98.5847 582.389 97.5432 583.394 96.7953C584.399 96.0474 585.611 95.63 586.862 95.6006C587.381 95.5609 587.901 95.5609 588.419 95.6006V99.5999C587.832 99.5999 587.215 99.4234 586.627 99.4234C583.69 99.4234 581.546 101.717 581.546 105.863V114.832H577.405L577.375 96.1299Z" fill="black"/>
<path d="M588.889 96.1297H592.003V90.4836H596.174V96.1297H599.904V99.0703H596.174V109.304C596.174 111.009 596.321 111.892 598.171 111.892C598.746 111.964 599.329 111.964 599.904 111.892V115.097C598.993 115.097 598.142 115.303 597.231 115.303C592.884 115.303 592.091 113.627 592.003 110.509V99.2174H588.889V96.1297Z" fill="black"/>
<path d="M602.107 96.1298H606.043V98.747C606.632 97.7264 607.494 96.891 608.532 96.335C609.57 95.7791 610.742 95.5246 611.917 95.6005C613.014 95.5204 614.109 95.7792 615.055 96.3418C616 96.9045 616.75 97.7439 617.204 98.747C617.831 97.761 618.7 96.9533 619.729 96.4022C620.758 95.851 621.912 95.5748 623.079 95.6005C623.94 95.4686 624.819 95.5424 625.646 95.816C626.473 96.0895 627.224 96.5549 627.837 97.1743C628.45 97.7937 628.908 98.5494 629.173 99.3798C629.439 100.21 629.504 101.092 629.365 101.952V114.95H625.223V103.952C625.223 101.011 625.047 98.894 621.786 98.894C618.849 98.894 617.792 100.747 617.792 103.923V114.95H613.65V102.864C613.65 100.276 612.857 98.894 610.331 98.894C609.733 98.9219 609.147 99.0732 608.61 99.3385C608.073 99.6038 607.596 99.9773 607.21 100.436C606.824 100.894 606.537 101.427 606.366 102.002C606.196 102.577 606.146 103.18 606.219 103.775V114.95H602.077L602.107 96.1298Z" fill="black"/>
<path d="M636.238 106.599C636.154 107.308 636.222 108.027 636.439 108.707C636.656 109.387 637.016 110.013 637.494 110.543C637.973 111.072 638.559 111.493 639.214 111.776C639.869 112.059 640.576 112.199 641.29 112.186C642.3 112.279 643.311 112.016 644.148 111.441C644.985 110.867 645.595 110.017 645.872 109.039H649.808C649.379 110.949 648.288 112.644 646.728 113.823C645.169 115.003 643.241 115.59 641.29 115.479C635.415 115.479 632.096 111.333 632.096 105.569C631.974 104.262 632.135 102.945 632.569 101.706C633.002 100.467 633.698 99.3366 634.608 98.3918C635.518 97.4471 636.621 96.7102 637.842 96.2317C639.063 95.7531 640.373 95.5442 641.682 95.6191C642.991 95.6941 644.268 96.0511 645.427 96.6659C646.585 97.2807 647.597 98.1386 648.394 99.1811C649.19 100.224 649.753 101.426 650.042 102.706C650.332 103.986 650.342 105.314 650.072 106.599H636.238ZM645.93 103.864C645.93 102.577 645.42 101.343 644.511 100.433C643.602 99.5229 642.369 99.0117 641.084 99.0117C639.799 99.0117 638.566 99.5229 637.657 100.433C636.748 101.343 636.238 102.577 636.238 103.864H645.93Z" fill="black"/>
<path d="M652.569 96.1299H656.505V98.8941C657.106 97.8699 657.964 97.0213 658.995 96.4331C660.026 95.8449 661.193 95.5375 662.379 95.5418C663.271 95.4052 664.182 95.476 665.042 95.7487C665.901 96.0214 666.687 96.4886 667.337 97.1142C667.988 97.7398 668.486 98.5069 668.792 99.3561C669.099 100.205 669.206 101.114 669.106 102.011V114.95H664.964V103.187C664.964 100.247 663.73 98.9529 661.292 98.9529C660.662 98.9551 660.039 99.0874 659.463 99.3414C658.886 99.5955 658.368 99.9659 657.94 100.43C657.513 100.893 657.186 101.44 656.979 102.036C656.773 102.632 656.691 103.264 656.74 103.893V115.009H652.598L652.569 96.1299Z" fill="black"/>
<path d="M670.75 96.1297H673.864V90.4836H677.917V96.1297H681.648V99.0703H677.917V109.304C677.917 111.009 677.917 111.892 679.915 111.892C680.49 111.964 681.072 111.964 681.648 111.892V115.097C680.737 115.097 679.856 115.303 678.945 115.303C674.628 115.303 673.835 113.627 673.746 110.509V99.2174H670.633L670.75 96.1297Z" fill="black"/>
<path d="M692.603 105.51C692.69 103.647 693.32 101.85 694.417 100.343C695.514 98.8349 697.028 97.6826 698.773 97.0287C700.518 96.3747 702.416 96.2478 704.232 96.6638C706.048 97.0797 707.703 98.0202 708.99 99.3685C710.277 100.717 711.141 102.414 711.473 104.249C711.806 106.084 711.594 107.977 710.862 109.692C710.131 111.408 708.913 112.87 707.359 113.899C705.805 114.928 703.983 115.477 702.12 115.479C700.815 115.544 699.511 115.327 698.298 114.843C697.084 114.359 695.988 113.619 695.085 112.673C694.183 111.727 693.494 110.598 693.065 109.362C692.637 108.126 692.48 106.813 692.603 105.51ZM707.466 105.51C707.466 102.276 705.821 98.894 702.12 98.894C698.419 98.894 696.774 102.276 696.774 105.51C696.774 108.745 698.478 112.245 702.061 112.245C705.645 112.245 707.29 108.804 707.29 105.51H707.466Z" fill="black"/>
<path d="M712.195 96.1297H715.279V94.6006C715.279 89.8074 717.805 88.984 720.478 88.984C721.464 88.9483 722.451 89.0373 723.415 89.2486V92.4833C722.789 92.3403 722.148 92.2712 721.506 92.2775C720.361 92.2775 719.45 92.6892 719.45 94.2477V96.1886H723.004V99.1292H719.45V114.862H715.308V99.2174H712.224L712.195 96.1297Z" fill="black"/>
<path d="M494.574 144.592C494.574 148.591 497.511 150.179 501.183 150.179C504.855 150.179 506.676 148.209 506.676 146.238C506.735 145.54 506.555 144.842 506.165 144.259C505.775 143.677 505.199 143.244 504.532 143.033C502.71 142.327 500.331 141.857 496.777 140.886C495.16 140.705 493.666 139.933 492.582 138.718C491.498 137.502 490.9 135.929 490.903 134.299C490.903 129.065 495.72 126.624 500.39 126.624C505.824 126.624 510.377 129.565 510.377 134.946H505.824C505.618 131.594 503.357 130.359 500.214 130.359C498.099 130.359 495.455 131.123 495.455 133.741C495.455 135.564 496.689 136.681 498.539 137.093C498.951 137.093 504.708 138.681 506.03 139.093C507.486 139.491 508.772 140.357 509.689 141.558C510.607 142.758 511.107 144.227 511.111 145.738C511.111 151.62 505.941 153.884 500.772 153.884C494.897 153.884 490.021 150.943 489.933 144.592H494.574Z" fill="black"/>
<path d="M513.079 143.886C513.165 142.028 513.794 140.237 514.887 138.734C515.981 137.231 517.491 136.083 519.23 135.431C520.97 134.779 522.862 134.653 524.672 135.068C526.483 135.483 528.132 136.42 529.415 137.765C530.698 139.109 531.559 140.801 531.891 142.63C532.222 144.46 532.011 146.346 531.281 148.056C530.552 149.766 529.338 151.225 527.788 152.25C526.239 153.276 524.423 153.823 522.566 153.825C521.265 153.89 519.965 153.674 518.755 153.191C517.544 152.709 516.452 151.971 515.552 151.028C514.652 150.085 513.965 148.959 513.538 147.726C513.112 146.494 512.955 145.184 513.079 143.886ZM527.912 143.886C527.912 140.651 526.267 137.269 522.566 137.269C518.865 137.269 517.22 140.651 517.22 143.886C517.22 147.121 518.865 150.561 522.566 150.561C526.267 150.561 527.912 147.179 527.912 143.886Z" fill="black"/>
<path d="M547.503 140.798C547.392 139.765 546.881 138.817 546.079 138.157C545.277 137.497 544.249 137.179 543.215 137.269C541.071 137.269 538.045 138.387 538.045 144.121C538.045 147.238 539.426 150.561 543.039 150.561C544.191 150.555 545.296 150.106 546.127 149.307C546.958 148.508 547.451 147.42 547.503 146.268H551.616C551.548 147.33 551.272 148.37 550.803 149.325C550.333 150.281 549.68 151.134 548.881 151.836C548.081 152.539 547.151 153.076 546.143 153.417C545.136 153.758 544.071 153.897 543.009 153.825C541.747 153.878 540.489 153.659 539.319 153.182C538.149 152.705 537.095 151.982 536.229 151.061C535.362 150.141 534.704 149.045 534.298 147.848C533.891 146.65 533.747 145.379 533.875 144.121C533.875 138.416 536.959 133.976 543.156 133.976C544.161 133.854 545.181 133.934 546.155 134.213C547.128 134.492 548.036 134.963 548.825 135.599C549.613 136.235 550.266 137.023 550.746 137.916C551.225 138.809 551.521 139.789 551.616 140.798H547.503Z" fill="black"/>
<path d="M554.377 127.301H558.518V131.241H554.377V127.301ZM554.377 134.476H558.518V153.414H554.377V134.476Z" fill="black"/>
<path d="M578.051 149.15C578.051 150.15 578.256 150.561 579.02 150.561C579.362 150.598 579.706 150.598 580.048 150.561V153.502C579.202 153.777 578.323 153.935 577.434 153.972C575.76 153.972 574.497 153.414 574.232 151.679C572.42 153.229 570.095 154.047 567.712 153.972C566.926 154.049 566.133 153.966 565.379 153.729C564.626 153.492 563.929 153.105 563.328 152.591C562.728 152.078 562.237 151.449 561.885 150.741C561.533 150.034 561.327 149.262 561.279 148.473C561.279 143.768 565.009 143.004 568.505 142.592C571.442 142.033 574.144 142.357 574.144 139.916C574.144 137.475 571.941 137.387 570.267 137.387C567.917 137.387 566.302 138.328 566.096 140.328H561.955C562.248 135.476 566.36 134.064 570.502 134.064C574.173 134.064 578.051 135.564 578.051 139.534V149.15ZM573.909 143.886C572.284 144.561 570.555 144.949 568.798 145.033C567.007 145.298 565.421 145.974 565.421 148.15C565.421 150.326 567.77 150.561 569.239 150.561C570.708 150.561 573.909 149.62 573.909 146.974V143.886Z" fill="black"/>
<path d="M582.075 127.301H586.246V153.414H582.075V127.301Z" fill="black"/>
<path d="M602.988 144.592C602.988 148.591 605.925 150.179 609.567 150.179C613.21 150.179 615.06 148.209 615.06 146.238C615.119 145.54 614.939 144.842 614.55 144.259C614.16 143.677 613.584 143.244 612.916 143.033C611.095 142.327 608.745 141.857 605.162 140.886C603.544 140.705 602.05 139.933 600.966 138.718C599.882 137.502 599.284 135.929 599.287 134.299C599.287 129.065 604.104 126.624 608.804 126.624C614.208 126.624 618.761 129.565 618.761 134.946H614.208C614.003 131.594 611.741 130.359 608.628 130.359C606.513 130.359 603.84 131.123 603.84 133.741C603.84 135.564 605.073 136.681 606.953 137.093C607.335 137.093 613.092 138.681 614.443 139.093C615.894 139.497 617.173 140.365 618.086 141.565C618.998 142.765 619.493 144.231 619.495 145.738C619.495 151.62 614.326 153.884 609.156 153.884C603.282 153.884 598.435 150.943 598.318 144.592H602.988Z" fill="black"/>
<path d="M625.605 144.974C625.521 145.683 625.589 146.402 625.806 147.082C626.023 147.763 626.383 148.389 626.862 148.918C627.34 149.447 627.927 149.868 628.581 150.152C629.236 150.435 629.944 150.575 630.657 150.561C631.652 150.661 632.651 150.415 633.486 149.863C634.321 149.311 634.94 148.488 635.239 147.532H639.175C638.741 149.436 637.647 151.125 636.088 152.298C634.528 153.472 632.604 154.055 630.657 153.943C629.368 154.013 628.08 153.8 626.883 153.317C625.686 152.834 624.61 152.093 623.73 151.148C622.85 150.203 622.188 149.076 621.792 147.846C621.395 146.617 621.273 145.315 621.434 144.033C621.315 142.726 621.479 141.409 621.915 140.172C622.351 138.935 623.048 137.806 623.96 136.863C624.872 135.921 625.976 135.186 627.197 134.71C628.418 134.234 629.728 134.027 631.036 134.104C632.345 134.181 633.621 134.54 634.778 135.156C635.935 135.773 636.946 136.632 637.741 137.675C638.536 138.718 639.096 139.921 639.385 141.201C639.673 142.481 639.681 143.808 639.41 145.092L625.605 144.974ZM635.268 142.239C635.32 141.572 635.234 140.902 635.015 140.27C634.796 139.638 634.448 139.058 633.994 138.567C633.541 138.076 632.99 137.684 632.378 137.416C631.766 137.148 631.105 137.01 630.437 137.01C629.768 137.01 629.107 137.148 628.495 137.416C627.883 137.684 627.333 138.076 626.879 138.567C626.425 139.058 626.078 139.638 625.858 140.27C625.639 140.902 625.553 141.572 625.605 142.239H635.268Z" fill="black"/>
<path d="M641.907 134.476H645.813V138.122C646.221 136.934 646.983 135.899 647.997 135.158C649.011 134.416 650.227 134.004 651.482 133.976C652 133.938 652.52 133.938 653.039 133.976V137.975C652.451 137.975 651.834 137.799 651.247 137.799C648.31 137.799 646.166 140.092 646.166 144.239V153.061H641.995L641.907 134.476Z" fill="black"/>
<path d="M653.45 134.476H657.973L662.732 148.944L667.314 134.476H671.602L664.964 153.414H660.294L653.45 134.476Z" fill="black"/>
<path d="M673.57 127.301H677.712V131.241H673.57V127.301ZM673.57 134.476H677.712V153.414H673.57V134.476Z" fill="black"/>
<path d="M694.101 140.798C693.99 139.765 693.479 138.817 692.677 138.157C691.875 137.497 690.847 137.179 689.813 137.269C687.669 137.269 684.643 138.387 684.643 144.121C684.643 147.238 686.024 150.561 689.637 150.561C690.791 150.562 691.901 150.115 692.733 149.315C693.565 148.514 694.056 147.422 694.101 146.268H698.243C698.18 147.329 697.907 148.368 697.441 149.323C696.974 150.278 696.324 151.132 695.527 151.835C694.729 152.537 693.801 153.075 692.795 153.416C691.789 153.758 690.726 153.897 689.666 153.825C688.404 153.878 687.145 153.659 685.975 153.182C684.806 152.705 683.752 151.982 682.885 151.061C682.019 150.141 681.36 149.045 680.954 147.848C680.548 146.65 680.404 145.379 680.531 144.121C680.531 138.416 683.615 133.976 689.813 133.976C690.818 133.854 691.838 133.934 692.811 134.213C693.785 134.492 694.693 134.963 695.481 135.599C696.27 136.235 696.923 137.023 697.403 137.916C697.882 138.809 698.178 139.789 698.272 140.798H694.101Z" fill="black"/>
<path d="M704.176 144.974C704.092 145.683 704.161 146.402 704.378 147.082C704.594 147.763 704.954 148.389 705.433 148.918C705.912 149.447 706.498 149.868 707.153 150.152C707.807 150.435 708.515 150.575 709.228 150.561C710.224 150.661 711.223 150.415 712.057 149.863C712.892 149.311 713.511 148.488 713.81 147.532H717.746C717.312 149.436 716.218 151.125 714.659 152.298C713.1 153.472 711.176 154.055 709.228 153.943C707.94 154.013 706.651 153.8 705.454 153.317C704.257 152.834 703.181 152.093 702.301 151.148C701.421 150.203 700.76 149.076 700.363 147.846C699.966 146.617 699.844 145.315 700.005 144.033C699.886 142.726 700.05 141.409 700.486 140.172C700.922 138.935 701.62 137.806 702.531 136.863C703.443 135.921 704.547 135.186 705.769 134.71C706.99 134.234 708.299 134.027 709.608 134.104C710.916 134.181 712.193 134.54 713.35 135.156C714.507 135.773 715.517 136.632 716.312 137.675C717.107 138.718 717.668 139.921 717.956 141.201C718.244 142.481 718.253 143.808 717.981 145.092L704.176 144.974ZM713.84 142.239C713.892 141.572 713.805 140.902 713.586 140.27C713.367 139.638 713.02 139.058 712.566 138.567C712.112 138.076 711.562 137.684 710.949 137.416C710.337 137.148 709.676 137.01 709.008 137.01C708.34 137.01 707.679 137.148 707.067 137.416C706.454 137.684 705.904 138.076 705.45 138.567C704.997 139.058 704.649 139.638 704.43 140.27C704.211 140.902 704.124 141.572 704.176 142.239H713.84Z" fill="black"/>
<path d="M723.65 147.268C723.885 149.679 725.706 150.561 727.909 150.561C729.466 150.561 732.198 150.238 732.11 148.091C732.021 145.944 728.967 145.65 725.941 144.944C722.916 144.239 719.92 143.209 719.92 139.387C719.92 135.564 724.355 133.976 727.762 133.976C731.17 133.976 735.106 135.593 735.634 139.857H731.287C730.935 137.887 729.29 137.358 727.469 137.358C726.264 137.358 724.061 137.652 724.061 139.269C724.061 141.327 726.999 141.622 730.171 142.21C733.343 142.798 736.251 144.003 736.251 147.709C736.251 152.208 731.728 153.825 727.851 153.825C723.122 153.825 719.567 151.737 719.509 147.268H723.65Z" fill="black"/>
</svg>
